<svg xmlns="http://www.w3.org/2000/svg" viewBox="0 0 512 512" fill="currentColor" aria-hidden="true">
  <path d="M223.937 139.773h64.125v64.125h-64.125z"/>
  <path d="M223.937 203.898h64.125v224.438h-64.125z"/>
  <path d="M223.937 203.898h64.125v24.047h-64.125z"/>
  <path d="M424.329 251.992a320.99 320.99 0 00-64.125-40.078 321.073 321.073 0 00-72.141-24.047v-32.063a321.073 321.073 0 0072.141-24.047 320.99 320.99 0 0064.125-40.078v160.313z"/>
  <path d="M288.063 163.82v24.047a321.073 321.073 0 0172.141 24.047 320.99 320.99 0 0164.125 40.078v-24.047a320.99 320.99 0 00-64.125-40.078 321.073 321.073 0 00-72.141-24.047z"/>
  <path d="M400.282 83.663h24.047v176.344h-24.047z"/>
  <path d="M87.671 251.992a320.99 320.99 0 0164.125-40.078 321.073 321.073 0 0172.141-24.047v-32.063a321.073 321.073 0 01-72.141-24.047 320.99 320.99 0 01-64.125-40.078v160.313z"/>
  <path d="M87.671 227.945v24.047a320.99 320.99 0 0164.125-40.078 321.073 321.073 0 0172.141-24.047V163.82a321.073 321.073 0 00-72.141 24.047 321.019 321.019 0 00-64.125 40.078z"/>
  <path d="M87.671 83.663h24.047v176.344H87.671z"/>
  <path d="M486.322 109.843a7.515 7.515 0 00-10.628.001 7.515 7.515 0 000 10.627c13.72 13.72 21.277 31.961 21.277 51.365s-7.557 37.646-21.277 51.365c-2.735 2.735-2.918 7.255-.4 10.196 2.81 3.282 7.97 3.488 11.027.432C502.88 217.27 512 195.254 512 171.836s-9.12-45.435-25.678-61.993z"/>
  <path d="M469.318 126.847a7.515 7.515 0 00-10.627 10.628c9.178 9.178 14.233 21.381 14.233 34.361 0 12.98-5.055 25.183-14.233 34.361-2.736 2.736-2.918 7.255-.4 10.197 2.809 3.281 7.971 3.487 11.027.432 12.017-12.018 18.635-27.996 18.635-44.99s-6.618-32.972-18.635-44.989z"/>
  <path d="M452.314 143.85a7.515 7.515 0 00-10.627 10.628 24.386 24.386 0 017.19 17.357c0 6.557-2.553 12.721-7.19 17.357-2.736 2.736-2.918 7.255-.4 10.197 2.809 3.281 7.971 3.487 11.027.432 7.475-7.475 11.592-17.413 11.592-27.985s-4.117-20.51-11.592-27.986zM15.029 171.836c0-19.403 7.557-37.646 21.277-51.365a7.514 7.514 0 000-10.627 7.514 7.514 0 00-10.627-.001C9.12 126.401 0 148.418 0 171.836s9.12 45.434 25.678 61.993c3.056 3.055 8.217 2.851 11.027-.432 2.519-2.942 2.337-7.461-.4-10.197-13.719-13.72-21.276-31.961-21.276-51.364z"/>
  <path d="M39.076 171.836c0-12.98 5.055-25.183 14.233-34.361a7.515 7.515 0 00-10.627-10.628c-12.017 12.017-18.635 27.995-18.635 44.989s6.618 32.971 18.635 44.989c3.056 3.055 8.217 2.851 11.027-.432 2.519-2.942 2.337-7.461-.4-10.197-9.178-9.177-14.233-21.38-14.233-34.36z"/>
  <path d="M70.313 143.849a7.515 7.515 0 00-10.627 0c-7.476 7.476-11.593 17.415-11.593 27.987s4.117 20.51 11.592 27.986c3.056 3.055 8.217 2.851 11.027-.432 2.519-2.942 2.337-7.461-.4-10.197-4.636-4.636-7.189-10.8-7.189-17.357 0-6.558 2.553-12.722 7.19-17.358a7.516 7.516 0 000-10.629zM424.329 76.149h-24.047a7.515 7.515 0 00-7.515 7.515v21.48a314.553 314.553 0 01-35.768 19.817 313.761 313.761 0 01-61.422 21.485v-6.672a7.515 7.515 0 00-7.515-7.515h-64.125a7.515 7.515 0 00-7.515 7.515v6.672A314.006 314.006 0 01155 124.961a314.318 314.318 0 01-35.768-19.818v-21.48a7.515 7.515 0 00-7.515-7.515H87.671a7.515 7.515 0 00-7.515 7.515v176.344a7.515 7.515 0 007.515 7.515h24.047a7.515 7.515 0 007.515-7.515v-21.5c.047-.029.097-.048.143-.078a314.569 314.569 0 0135.625-19.719 313.807 313.807 0 0161.422-21.486v231.111a7.515 7.515 0 007.515 7.515h64.125a7.515 7.515 0 007.515-7.515V295.41a7.515 7.515 0 10-15.03 0v125.412h-49.096V211.413h49.096v48.595a7.515 7.515 0 1015.03 0v-62.782A313.85 313.85 0 01357 218.711a314.4 314.4 0 0135.768 19.822v21.475a7.515 7.515 0 007.515 7.515h24.047a7.515 7.515 0 007.515-7.515V83.663a7.516 7.516 0 00-7.516-7.514zM104.204 252.493h-9.018V91.178h9.018v161.315zm44.388-47.376a329.606 329.606 0 00-29.359 15.717v-97.991a329.983 329.983 0 0029.359 15.713 328.97 328.97 0 0067.83 23.317v19.93a328.644 328.644 0 00-67.83 23.314zm82.86-8.733v-49.096h49.096v49.096h-49.096zm131.956 8.733a328.91 328.91 0 00-67.83-23.317v-19.93a328.75 328.75 0 0067.83-23.317 329.78 329.78 0 0029.359-15.712v97.984a329.88 329.88 0 00-29.359-15.708zm53.406 47.376h-9.018V91.178h9.018v161.315z"/>
</svg>
