<svg xmlns="http://www.w3.org/2000/svg" viewBox="0 0 20 20" fill="currentColor" aria-hidden="true">
  <path
    fill-rule="evenodd"
    d="M18.207 3.207a1 1 0 00-1.414-1.414L13.5 5.086l-1.293-1.293a1 1 0 10-1.414 1.414l2 2a1 1 0 001.414 0l4-4zM10 2c.288 0 .573.015.854.045-.422.145-.814.38-1.122.687-.38.38-.612.853-.696 1.345A6.002 6.002 0 0010 16a6 6 0 005.626-8.09l1.517-1.517A8 8 0 1110 2zm.748 6.584a1 1 0 01.059-1.242l.925.926a2.493 2.493 0 001.78.732l.3.416a1 1 0 010 1.168l-1.44 2a1 1 0 11-1.623-1.168L11.768 10l-1.02-1.416zm-1.496 0a1 1 0 10-1.624-1.168l-1.44 2a1 1 0 000 1.168l1.44 2a1 1 0 001.624-1.168L8.232 10l1.02-1.416z"
    clip-rule="evenodd"
  />
</svg>
