<svg xmlns="http://www.w3.org/2000/svg" aria-hidden="true" viewBox="0 0 20 20" fill="currentColor">
  <path fill-rule="evenodd" d="M12.5 2.398A8 8 0 1017.602 7.5H17.5V8a2.5 2.5 0 01-1.507 2.295 6 6 0 11-6.288-6.288A2.5 2.5 0 0112 2.5h.5v-.102zm-1.598 4.849a1 1 0 00-.153 1.337L11.768 10l-1.02 1.416a1 1 0 101.623 1.168l1.44-2a.996.996 0 00.15-.31A2.5 2.5 0 0112.5 8v-.406l-.068-.094H12a2.49 2.49 0 01-1.098-.253zm-1.878-.058a1 1 0 01.228 1.395L8.232 10l1.02 1.416a1 1 0 11-1.624 1.168l-1.44-2a1 1 0 010-1.168l1.44-2a1 1 0 011.396-.227z" clip-rule="evenodd"/>
  <path fill-rule="evenodd" d="M15 1a1 1 0 011 1v2h2a1 1 0 110 2h-2v2a1 1 0 11-2 0V6h-2a1 1 0 110-2h2V2a1 1 0 011-1z" clip-rule="evenodd"/>
</svg>
