<svg xmlns="http://www.w3.org/2000/svg" viewBox="0 0 20 20" fill="currentColor" aria-hidden="true">
  <path d="M2.058 13.698c.136 1.707 1.702 3.125 3.608 3.255.44.03.884.047 1.334.047.449 0 .895-.018 1.334-.047 1.907-.13 3.472-1.548 3.608-3.255.034-.422.056-.847.056-1.278 0-1.112.016-2.195-.035-3.237a1.066 1.066 0 00-.356-.732 1.317 1.317 0 00-.81-.332 60.437 60.437 0 00-7.592 0 1.317 1.317 0 00-.811.332 1.066 1.066 0 00-.357.732c-.05 1.042-.035 2.125-.035 3.237 0 .43.021.856.056 1.278z"/>
  <path fill-rule="evenodd" d="M3.131 7.124a60.48 60.48 0 017.74 0c.548.033 1.065.25 1.451.608.387.359.615.835.64 1.338v.003c.042.88.04 1.79.037 2.697l-.001.648c0 .467-.023.923-.058 1.371-.172 2.187-2.125 3.993-4.528 4.16H8.41C7.95 17.981 7.478 18 7 18c-.48 0-.95-.02-1.41-.05h-.002c-2.402-.168-4.356-1.974-4.528-4.162a17.197 17.197 0 01-.058-1.37v-.648c-.003-.906-.006-1.817.036-2.697V9.07c.026-.503.254-.98.64-1.339a2.341 2.341 0 011.453-.607zm-1.082 6.6l.99-.065c.1 1.299 1.284 2.387 2.7 2.486.42.029.84.045 1.261.045.42 0 .842-.017 1.262-.045 1.416-.099 2.598-1.187 2.7-2.486v-.001c.033-.414.053-.826.053-1.24v-.671c.003-.902.006-1.76-.034-2.593A.228.228 0 0010.907 9a.27.27 0 00-.168-.07h-.005c-2.486-.16-4.98-.16-7.466 0H3.26a.27.27 0 00-.168.07.227.227 0 00-.074.154 52.59 52.59 0 00-.035 2.593l.001.671c0 .414.02.826.053 1.24l-.989.065z" clip-rule="evenodd"/>
  <path fill-rule="evenodd" d="M12.105 10.564h-.008L12.15 9h.014c.093.004 1.196.009 1.3.015 1.38.08 3.536 1.295 3.536 2.983 0 1.689-2.155 2.906-3.537 2.984-.147.01-1.292.015-1.433.018L12 13.435c.129-.003 1.258-.008 1.387-.016h.003c.778-.043 2.192-.72 2.192-1.42s-1.414-1.377-2.193-1.42l-.002-.001c-.092-.006-1.184-.01-1.282-.014zM5.834 2c.484 0 .876.392.876.875v2.116a.875.875 0 01-1.75 0V2.875c0-.483.391-.875.874-.875zM8.76 2c.483 0 .875.392.875.875v2.116a.875.875 0 01-1.75 0V2.875c0-.483.392-.875.875-.875z" clip-rule="evenodd"/>
</svg>
