<svg xmlns="http://www.w3.org/2000/svg" viewBox="0 0 448 512" fill="currentColor" aria-hidden="true">
  <path d="M400 32H48A48 48 0 000 80v352a48 48 0 0048 48h352a48 48 0 0048-48V80a48 48 0 00-48-48zm16 400a16 16 0 01-16 16H48a16 16 0 01-16-16V80a16 16 0 0116-16h352a16 16 0 0116 16zM201.6 152c-25.4 0-37.4 10.4-57.6 14.4V160a16 16 0 00-32 0v192a16 16 0 0032 0V198.4c20.2-4 32.2-14.4 57.6-14.4 31.4 0 43.2 16 74.6 16 10.2 0 17.8-1.4 27.8-4.6v96c-10 3.2-17.6 4.6-27.8 4.6-31.4 0-43.4-16-74.6-16a85.9 85.9 0 00-25.6 4v32a80 80 0 0125.6-4c31.4 0 43.2 16 74.6 16 18.6 0 28.2-4.8 59.8-16V152c-31.6 11.2-41.2 16-59.8 16-31.4 0-43.4-16-74.6-16z"/>
</svg>
