<svg xmlns="http://www.w3.org/2000/svg" viewBox="0 0 20 20" fill="currentColor" aria-hidden="true">
  <path d="M3 5a2 2 0 012-2h10a2 2 0 012 2v10a2 2 0 01-2 2H5a2 2 0 01-2-2V5z"/>
  <path stroke="#fff" stroke-linecap="round" stroke-linejoin="round" d="M12.4 13.733V10a.933.933 0 01.933-.933h.934M12.4 11.867h1.4M10.333 13.733V9.067M7.675 11.867H8.3v.933c0 .247-.132.485-.366.66a1.491 1.491 0 01-.884.273c-.332 0-.65-.098-.884-.273-.234-.175-.366-.413-.366-.66V10c0-.248.132-.485.366-.66.235-.175.552-.273.884-.273H8.3"/>
</svg>
