<svg xmlns="http://www.w3.org/2000/svg" viewBox="0 0 18 18" fill="currentColor" aria-hidden="true">
  <path fill-rule="evenodd" d="M5 3a2 2 0 00-2 2v8.6a2 2 0 002 2h8.6a2 2 0 002-2V5a2 2 0 00-2-2H5zm1.646 6.134a.673.673 0 00-.392.112.205.205 0 00-.057.06l-.001.001v2.506c.005.01.02.032.058.06.08.059.219.111.392.111a.673.673 0 00.391-.111.206.206 0 00.058-.06v-.168a.675.675 0 01.113-1.34h.563c.372 0 .675.302.675.674v.84c0 .476-.254.876-.601 1.135-.343.256-.776.38-1.2.38-.423 0-.856-.124-1.199-.38-.346-.259-.6-.659-.6-1.135V9.3c0-.476.254-.876.6-1.134.343-.256.776-.38 1.2-.38H7.77a.675.675 0 010 1.35H6.646zm3.628-.675a.675.675 0 10-1.35 0v4.2a.675.675 0 101.35 0v-4.2zm2.024.675a.165.165 0 00-.165.165v1.006h.585a.675.675 0 110 1.35h-.585v1.004a.675.675 0 11-1.35 0V9.3a1.515 1.515 0 011.515-1.516h.84a.675.675 0 110 1.35h-.84z" clip-rule="evenodd"/>
</svg>
