<svg xmlns="http://www.w3.org/2000/svg" viewBox="0 0 20 20" fill="currentColor" aria-hidden="true">
  <path d="M17.208 8.64H10.15v2.901h4.032a3.442 3.442 0 01-1.496 2.262c-.672.449-1.53.715-2.538.715-1.95 0-3.601-1.319-4.191-3.09a4.542 4.542 0 01-.234-1.424c0-.494.086-.975.234-1.424C6.55 6.81 8.2 5.492 10.15 5.492c1.1 0 2.086.38 2.864 1.121l2.148-2.15c-1.299-1.211-2.992-1.953-5.012-1.953a7.487 7.487 0 00-7.49 7.496 7.487 7.487 0 007.49 7.494c2.024 0 3.72-.672 4.957-1.816 1.416-1.305 2.235-3.227 2.235-5.51 0-.531-.047-1.041-.135-1.533z"/>
</svg>
