<svg xmlns="http://www.w3.org/2000/svg" viewBox="0 0 512.001 512.001" fill="currentColor" aria-hidden="true">
  <path d="M385.988 275.901L262.875 95.232c-2.813-4.127-8.898-4.127-11.71 0L128.051 275.901a20.114 20.114 0 002.3 25.45l58.654 59.478a19.256 19.256 0 015.545 13.519v33.293h124.94v-33.293c0-5.059 1.991-9.916 5.544-13.517l58.655-59.48a20.118 20.118 0 002.299-25.45z"/>
  <path d="M209.018 360.83l-58.654-59.478a20.116 20.116 0 01-2.301-25.45l118.962-174.576-4.152-6.093c-2.813-4.127-8.898-4.127-11.71 0L128.051 275.901a20.113 20.113 0 002.301 25.45l58.654 59.478a19.256 19.256 0 015.545 13.519v33.293h20.013v-33.293a19.263 19.263 0 00-5.546-13.518z"/>
  <path d="M267.383 284.274h-20.727c-10.333 0-18.711 8.378-18.711 18.711s8.378 18.711 18.711 18.711h20.727c10.333 0 18.711-8.378 18.711-18.711 0-10.333-8.379-18.711-18.711-18.711z"/>
  <path d="M267.383 301.905h-20.727c-6.695 0-12.553-3.528-15.86-8.816a18.602 18.602 0 00-2.852 9.896c0 10.334 8.378 18.711 18.711 18.711h20.727c10.333 0 18.711-8.377 18.711-18.711 0-3.638-1.055-7.023-2.852-9.896-3.306 5.288-9.163 8.816-15.858 8.816z"/>
  <path d="M206.21 460.735v33.091c0 6.019 4.879 10.898 10.898 10.898h79.821c6.019 0 10.898-4.879 10.898-10.898v-33.091H206.21z"/>
  <g>
    <path d="M226.223 493.826v-33.091H206.21v33.091c0 6.019 4.879 10.898 10.898 10.898h20.013c-6.018 0-10.898-4.879-10.898-10.898z"/>
    <path d="M324.201 406.759H189.837c-6.604 0-12.008 5.404-12.008 12.008v30.52c0 6.604 5.404 12.008 12.008 12.008h134.364c6.604 0 12.008-5.404 12.008-12.008v-30.52c0-6.604-5.403-12.008-12.008-12.008z"/>
  </g>
  <path d="M324.201 441.282H189.837c-6.604 0-12.008-5.404-12.008-12.008v20.013c0 6.604 5.404 12.008 12.008 12.008h134.364c6.604 0 12.008-5.404 12.008-12.008v-20.013c0 6.604-5.403 12.008-12.008 12.008z"/>
  <path d="M65.445 209.56H44.281c-6.483 0-11.739 5.255-11.739 11.739v21.163c0 6.483 5.255 11.739 11.739 11.739h21.164c6.483 0 11.739-5.255 11.739-11.739v-21.163c-.001-6.483-5.256-11.739-11.739-11.739z"/>
  <path d="M52.556 242.462v-21.163c0-6.483 5.255-11.739 11.739-11.739h1.152-21.166c-6.483 0-11.739 5.255-11.739 11.739v21.163c0 6.483 5.255 11.739 11.739 11.739h20.013c-6.483 0-11.738-5.257-11.738-11.739z"/>
  <circle cx="54.863" cy="30.05" r="22.32"/>
  <path d="M52.556 30.054c0-8.728 5.013-16.281 12.314-19.95a22.219 22.219 0 00-10.007-2.37c-12.327 0-22.321 9.993-22.321 22.32s9.994 22.321 22.321 22.321c3.599 0 6.996-.857 10.007-2.37-7.301-3.669-12.314-11.222-12.314-19.951z"/>
  <path d="M467.649 209.56h-21.163c-6.483 0-11.739 5.255-11.739 11.739v21.163c0 6.483 5.255 11.739 11.739 11.739h21.163c6.483 0 11.739-5.255 11.739-11.739v-21.163c-.001-6.483-5.256-11.739-11.739-11.739z"/>
  <path d="M454.76 242.462v-21.163c0-6.483 5.255-11.739 11.739-11.739h1.152H446.486c-6.483 0-11.739 5.255-11.739 11.739v21.163c0 6.483 5.255 11.739 11.739 11.739h20.013c-6.484 0-11.739-5.257-11.739-11.739z"/>
  <path d="M267.102 7.734h-21.163c-6.483 0-11.739 5.255-11.739 11.739v21.163c0 6.483 5.255 11.739 11.739 11.739h21.163c6.483 0 11.739-5.255 11.739-11.739V19.473c0-6.483-5.255-11.739-11.739-11.739z"/>
  <path d="M254.214 40.636V19.473c0-6.483 5.255-11.739 11.739-11.739h1.152H245.94c-6.483 0-11.739 5.255-11.739 11.739v21.163c0 6.483 5.255 11.739 11.739 11.739h20.013c-6.484 0-11.739-5.257-11.739-11.739z"/>
  <circle cx="456.965" cy="30.25" r="22.32"/>
  <path d="M454.655 30.249c0-8.728 5.013-16.281 12.314-19.95a22.219 22.219 0 00-10.007-2.37c-12.327 0-22.321 9.993-22.321 22.32s9.994 22.32 22.321 22.32c3.599 0 6.996-.857 10.007-2.37-7.301-3.669-12.314-11.222-12.314-19.95z"/>
  <path d="M467.686 201.826h-4.08c-10.353-72.554-58.613-136.122-129.309-164.495h93.835c3.336 12.825 15.014 22.321 28.868 22.321 16.446 0 29.826-13.38 29.826-29.826S473.444 0 456.999 0c-13.854 0-25.531 9.496-28.868 22.321H286.383v-3.078C286.383 8.632 277.75 0 267.14 0h-21.163c-10.611 0-19.244 8.633-19.244 19.243v3.077H83.768C80.431 9.496 68.755 0 54.9 0 38.455 0 25.075 13.38 25.075 29.826S38.455 59.652 54.9 59.652c13.854 0 25.531-9.496 28.867-22.321h95.052C108.152 65.692 59.866 129.245 49.511 201.826h-5.192c-10.611 0-19.244 8.633-19.244 19.243v21.163c0 10.611 8.633 19.243 19.244 19.243h21.163c10.611 0 19.243-8.633 19.243-19.243v-21.163c0-10.611-8.633-19.243-19.243-19.243h-.81c12.779-82.94 79.132-149.349 162.06-162.203v.783c0 10.611 8.633 19.244 19.244 19.244h21.163c10.611 0 19.243-8.633 19.243-19.244v-.783c82.928 12.853 149.28 79.263 162.06 162.203h-1.92c-10.611 0-19.244 8.633-19.244 19.243v21.163c0 10.611 8.633 19.243 19.244 19.243h21.162c10.611 0 19.244-8.633 19.244-19.243v-21.163c.001-10.61-8.631-19.243-19.242-19.243zM69.715 221.07v21.163a4.237 4.237 0 01-4.233 4.233H44.318a4.237 4.237 0 01-4.234-4.233V221.07a4.237 4.237 0 014.234-4.233h21.163a4.237 4.237 0 014.234 4.233zM456.999 15.01c8.169 0 14.816 6.646 14.816 14.816s-6.646 14.816-14.816 14.816c-7.865 0-14.3-6.166-14.77-13.915.035-.295.059-.594.059-.9s-.024-.604-.059-.9c.47-7.751 6.904-13.917 14.77-13.917zM54.9 44.641c-8.169 0-14.816-6.646-14.816-14.816S46.731 15.01 54.9 15.01s14.815 6.646 14.815 14.816S63.069 44.641 54.9 44.641zm212.239 0h-21.163a4.238 4.238 0 01-4.234-4.234V19.244a4.237 4.237 0 014.234-4.233h21.163a4.237 4.237 0 014.233 4.233v21.163a4.237 4.237 0 01-4.233 4.234zm204.78 197.592a4.237 4.237 0 01-4.234 4.233h-21.162a4.237 4.237 0 01-4.234-4.233V221.07a4.237 4.237 0 014.234-4.233h21.162a4.237 4.237 0 014.234 4.233v21.163z"/>
  <path d="M375.928 298.34l-56.201 56.992a26.598 26.598 0 00-7.705 18.787v25.788h-109.93v-25.788a26.6 26.6 0 00-7.705-18.788l-58.654-59.478c-4.219-4.279-4.825-10.988-1.442-15.954l115.261-169.146V276.54h-2.858c-14.456 0-26.216 11.761-26.216 26.215 0 14.456 11.761 26.216 26.216 26.216h20.727c14.456 0 26.216-11.761 26.216-26.216 0-14.455-11.761-26.215-26.216-26.215h-2.858V110.752l110.432 162.062a7.507 7.507 0 0012.405-8.453L269.113 90.777c-5.787-8.493-18.349-8.457-24.114 0L121.886 271.446c-7.412 10.876-6.084 25.574 3.158 34.946l58.654 59.478a11.676 11.676 0 013.382 8.248v26.012c-9.437 1.363-16.719 9.481-16.719 19.29v29.076c0 10.759 8.754 19.513 19.513 19.513h8.868v25.586c0 10.149 8.255 18.404 18.403 18.404h21.345a7.504 7.504 0 007.505-7.505 7.504 7.504 0 00-7.505-7.505h-21.344a3.397 3.397 0 01-3.393-3.394v-25.586h86.608v25.586a3.398 3.398 0 01-3.393 3.394h-23.454a7.504 7.504 0 00-7.505 7.505 7.504 7.504 0 007.505 7.505h23.454c10.148 0 18.403-8.255 18.403-18.404v-25.586h8.868c10.759 0 19.513-8.754 19.513-19.513V419.42c0-9.809-7.283-17.927-16.72-19.29v-26.012c0-3.107 1.201-6.036 3.382-8.247l56.201-56.993a7.504 7.504 0 10-10.687-10.538zm-97.302 4.416c0 6.179-5.027 11.206-11.206 11.206h-20.727c-6.179 0-11.206-5.027-11.206-11.206 0-6.179 5.027-11.205 11.206-11.205h20.727c6.179-.001 11.206 5.026 11.206 11.205zm50.115 116.666v29.076c0 2.441-2.062 4.503-4.503 4.503H189.874c-2.441 0-4.503-2.062-4.503-4.503v-29.076c0-2.441 2.062-4.503 4.503-4.503h134.364c2.441 0 4.503 2.061 4.503 4.503z"/>
</svg>
