<svg xmlns="http://www.w3.org/2000/svg" viewBox="0 0 512 512" fill="currentColor" aria-hidden="true">
  <g>
    <circle cx="179.5" cy="484.5" r="20"/>
    <circle cx="332.5" cy="484.5" r="20"/>
  </g>
  <path d="M112.5 7.5h130v309.11h-130z"/>
  <path d="M212.5 7.5h30v309.11h-30z"/>
  <path d="M271.5 7.5h130v309.11h-130z"/>
  <path d="M371.5 7.5h30v309.11h-30z"/>
  <path d="M112.5 50.06h130v98h-130z"/>
  <path d="M212.5 50.06h30v98h-30z"/>
  <path d="M271.5 50.06h130v98h-130z"/>
  <path d="M371.5 50.06h30v98h-30z"/>
  <path d="M441 308.061C441 325.699 426.663 340 408.969 340H103.02C85.336 340 71 325.699 71 308.061c0-17.639 14.337-31.939 32.021-31.939a31.85 31.85 0 0115.076 3.767 37.295 37.295 0 01-.39-5.421c0-20.808 16.915-37.679 37.775-37.679a37.626 37.626 0 0124.937 9.387c-.04-.727-.05-1.455-.05-2.192 0-29.817 24.238-53.983 54.13-53.983 23.089 0 42.811 14.43 50.583 34.749 6.394-10.085 17.684-16.782 30.532-16.782 19.942 0 36.107 16.124 36.107 36.015 0 4.235-.73 8.301-2.078 12.078a27.25 27.25 0 0111.679-2.611c15.116 0 27.375 12.228 27.375 27.305 0 .907-.04 1.814-.13 2.701a31.876 31.876 0 0120.401-7.335c17.695 0 32.032 14.301 32.032 31.94z"/>
  <path d="M408.969 276.277a31.87 31.87 0 00-20.401 7.335c.09-.887.13-1.794.13-2.701 0-15.078-12.259-27.305-27.375-27.305a27.25 27.25 0 00-11.679 2.611 35.837 35.837 0 002.078-12.078c0-19.891-16.165-36.015-36.107-36.015-12.848 0-24.138 6.697-30.532 16.782-7.773-20.32-27.495-34.75-50.583-34.75-18.901 0-35.531 9.668-45.213 24.31a54.1 54.1 0 0119.547-3.644c18.735 0 35.252 9.501 44.969 23.94 3.052 4.536 9.249 5.407 13.511 1.982a36.018 36.018 0 0122.636-7.954c19.941 0 36.107 16.124 36.107 36.015v.127c-.018 5.188 4.103 9.361 9.291 9.34l.31.001c14.811.116 21.697 10.653 24.811 19.212 1.747 4.799 7.007 7.166 11.802 5.408a31.986 31.986 0 0111.032-1.948c17.694 0 32.031 14.3 32.031 31.939 0 3.851-.684 7.543-1.936 10.962 15.595-2.152 27.602-15.49 27.602-31.63 0-17.639-14.337-31.939-32.031-31.939z"/>
  <g>
    <circle cx="27.5" cy="406.24" r="20"/>
    <circle cx="484.5" cy="406.24" r="20"/>
    <circle cx="256" cy="445" r="20"/>
  </g>
  <circle cx="301.69" cy="78.7" r="8.157"/>
  <circle cx="301.69" cy="99.06" r="8.157"/>
  <circle cx="301.69" cy="119.43" r="8.157"/>
  <path d="M329.146 86.196H374.5c4.143 0 7.5-3.357 7.5-7.5s-3.357-7.5-7.5-7.5h-45.354c-4.143 0-7.5 3.357-7.5 7.5s3.357 7.5 7.5 7.5zM329.146 106.563H374.5c4.143 0 7.5-3.357 7.5-7.5s-3.357-7.5-7.5-7.5h-45.354c-4.143 0-7.5 3.357-7.5 7.5s3.357 7.5 7.5 7.5zM382 119.522c0-4.143-3.357-7.5-7.5-7.5h-45.354c-4.143 0-7.5 3.357-7.5 7.5s3.357 7.5 7.5 7.5H374.5c4.143 0 7.5-3.357 7.5-7.5z"/>
  <circle cx="142.67" cy="78.7" r="8.157"/>
  <circle cx="142.67" cy="99.06" r="8.157"/>
  <circle cx="142.67" cy="119.43" r="8.157"/>
  <path d="M215.486 71.196h-45.354c-4.143 0-7.5 3.357-7.5 7.5s3.357 7.5 7.5 7.5h45.354c4.143 0 7.5-3.357 7.5-7.5s-3.357-7.5-7.5-7.5zM215.486 91.563h-45.354c-4.143 0-7.5 3.357-7.5 7.5s3.357 7.5 7.5 7.5h45.354c4.143 0 7.5-3.357 7.5-7.5s-3.357-7.5-7.5-7.5zM215.486 112.022h-45.354c-4.143 0-7.5 3.357-7.5 7.5s3.357 7.5 7.5 7.5h45.354c4.143 0 7.5-3.357 7.5-7.5s-3.357-7.5-7.5-7.5z"/>
  <path d="M484.5 378.739c-12.563 0-23.178 8.472-26.452 20h-70.853V347.5h21.774c21.797 0 39.53-17.692 39.53-39.439 0-21.737-17.717-39.422-39.5-39.439V7.5c0-4.143-3.357-7.5-7.5-7.5h-130a7.499 7.499 0 00-7.5 7.5v182.584a62.059 62.059 0 00-14-5.578V7.5c0-4.143-3.357-7.5-7.5-7.5h-130a7.499 7.499 0 00-7.5 7.5v152c0 4.143 3.357 7.5 7.5 7.5s7.5-3.357 7.5-7.5v-3.937h115v26.945c-.167-.001-.333-.008-.5-.008-30.283 0-55.535 21.9-60.675 50.66a45.317 45.317 0 00-18.343-3.872c-14.365 0-27.182 6.715-35.482 17.158V192c0-4.143-3.357-7.5-7.5-7.5s-7.5 3.357-7.5 7.5v76.673a39.576 39.576 0 00-1.979-.052c-21.792 0-39.521 17.692-39.521 39.439s17.73 39.44 39.522 39.44h21.784v51.239H53.952c-3.274-11.528-13.889-20-26.452-20-15.163 0-27.5 12.337-27.5 27.5s12.337 27.5 27.5 27.5c12.563 0 23.178-8.472 26.452-20h78.353c4.143 0 7.5-3.357 7.5-7.5V347.5H172v4.333c0 4.143 3.357 7.5 7.5 7.5s7.5-3.357 7.5-7.5V347.5h61.5v71.048c-11.528 3.274-20 13.889-20 26.452 0 15.163 12.337 27.5 27.5 27.5s27.5-12.337 27.5-27.5c0-12.563-8.472-23.178-20-26.452V347.5H325v110.548c-11.528 3.274-20 13.889-20 26.452 0 15.163 12.337 27.5 27.5 27.5s27.5-12.337 27.5-27.5c0-12.563-8.472-23.178-20-26.452V347.5h32.195v58.739c0 4.143 3.357 7.5 7.5 7.5h78.353c3.274 11.528 13.889 20 26.452 20 15.163 0 27.5-12.337 27.5-27.5s-12.337-27.5-27.5-27.5zM235 15v27.563H120V15h115zM120 140.563v-83h115v83H120zM27.5 418.739c-6.893 0-12.5-5.607-12.5-12.5s5.607-12.5 12.5-12.5 12.5 5.607 12.5 12.5-5.607 12.5-12.5 12.5zM268.5 445c0 6.893-5.607 12.5-12.5 12.5s-12.5-5.607-12.5-12.5 5.607-12.5 12.5-12.5 12.5 5.607 12.5 12.5zm76.5 39.5c0 6.893-5.607 12.5-12.5 12.5s-12.5-5.607-12.5-12.5 5.607-12.5 12.5-12.5 12.5 5.607 12.5 12.5zm-29.385-284.032c-10.844 0-21.034 3.938-28.892 10.894a61.521 61.521 0 00-7.724-9.828v-45.97h72.823c4.143 0 7.5-3.357 7.5-7.5s-3.357-7.5-7.5-7.5H279v-83h115v83h-9.833c-4.143 0-7.5 3.357-7.5 7.5s3.357 7.5 7.5 7.5H394v113.03c-4.953-13.212-17.732-22.644-32.677-22.644-.72 0-1.436.021-2.147.064a44.34 44.34 0 00.047-2.032c0-23.994-19.563-43.514-43.608-43.514zM394 15v27.563H279V15h115zM78.5 308.061c0-13.476 11-24.439 24.521-24.439a24.5 24.5 0 0111.535 2.879 7.499 7.499 0 0010.962-7.698 30.057 30.057 0 01-.311-4.336c0-16.641 13.581-30.179 30.275-30.179 7.372 0 14.47 2.671 19.985 7.52.006.006.014.01.02.015a30.16 30.16 0 0110.263 22.643c0 7.36-2.688 14.449-7.567 19.959a7.499 7.499 0 00.642 10.587 7.47 7.47 0 004.97 1.886 7.481 7.481 0 005.617-2.527 45.06 45.06 0 0011.339-29.904c0-11.813-4.655-23.107-12.856-31.512.553-25.156 21.239-45.454 46.605-45.454 18.074 0 34.637 10.64 42.241 26.798a43.351 43.351 0 00-4.737 19.688c0 14.887 7.502 28.583 20.067 36.638a7.496 7.496 0 0010.362-2.266 7.501 7.501 0 00-2.267-10.362c-8.242-5.283-13.163-14.258-13.163-24.009a28.35 28.35 0 014.401-15.204l.011-.016c5.279-8.327 14.325-13.298 24.198-13.298 15.774 0 28.607 12.792 28.607 28.515 0 3.289-.553 6.505-1.643 9.556a7.501 7.501 0 0010.271 9.302 19.648 19.648 0 018.472-1.89c10.959 0 19.875 8.885 19.875 19.806 0 .689-.031 1.344-.092 1.944a7.5 7.5 0 0012.246 6.532 24.53 24.53 0 0115.617-5.611c13.526 0 24.53 10.964 24.53 24.439s-11 24.437-24.526 24.437H103.021C89.5 332.5 78.5 321.536 78.5 308.061zm406 110.678c-6.893 0-12.5-5.607-12.5-12.5s5.607-12.5 12.5-12.5 12.5 5.607 12.5 12.5-5.607 12.5-12.5 12.5z"/>
  <path d="M187 458.048v-74.215c0-4.143-3.357-7.5-7.5-7.5s-7.5 3.357-7.5 7.5v74.215c-11.528 3.274-20 13.889-20 26.452 0 15.163 12.337 27.5 27.5 27.5s27.5-12.337 27.5-27.5c0-12.563-8.472-23.178-20-26.452zM179.5 497c-6.893 0-12.5-5.607-12.5-12.5s5.607-12.5 12.5-12.5 12.5 5.607 12.5 12.5-5.607 12.5-12.5 12.5z"/>
</svg>
