<svg xmlns="http://www.w3.org/2000/svg" viewBox="0 0 512 512" fill="currentColor" aria-hidden="true">
  <g>
    <path d="M60.761 139.883c-7.81 0-14.144-6.334-14.144-14.144V60.761c0-7.81 6.334-14.144 14.144-14.144h64.979c7.81 0 14.144 6.334 14.144 14.144s-6.334 14.144-14.144 14.144H74.905v50.835c0 7.811-6.334 14.143-14.144 14.143zM451.239 465.383H386.26c-7.81 0-14.144-6.334-14.144-14.144s6.334-14.144 14.144-14.144h50.835V386.26c0-7.81 6.334-14.144 14.144-14.144 7.81 0 14.144 6.334 14.144 14.144v64.979c0 7.811-6.333 14.144-14.144 14.144z"/>
    <path d="M497.856 512H14.144C6.334 512 0 505.667 0 497.856V14.144C0 6.334 6.334 0 14.144 0h483.713C505.667 0 512 6.334 512 14.144v483.713c0 7.81-6.333 14.143-14.144 14.143zM28.287 483.713h455.425V28.287H28.287v455.426z"/>
  </g>
  <path d="M371.515 199.425l6.947-77.791c.229-2.544-1.677-4.626-4.232-4.626H137.768c-2.554 0-4.458 2.082-4.232 4.626l21.539 241.599c.226 2.544 2.426 5.186 4.888 5.87l91.402 25.378c2.462.683 6.491.683 8.953.001l91.679-25.42c2.462-.683 4.665-3.324 4.891-5.868l7.208-80.697"/>
  <g>
    <path d="M255.844 409.138c-2.897 0-5.793-.344-8.264-1.031l-91.4-25.376c-8.191-2.274-14.438-9.776-15.192-18.244L119.447 122.89c-.458-5.158 1.264-10.287 4.727-14.072 3.462-3.785 8.417-5.954 13.593-5.954h236.465c5.178 0 10.134 2.171 13.598 5.959 3.461 3.786 5.182 8.916 4.721 14.073l-6.949 77.789c-.694 7.782-7.581 13.533-15.346 12.828-7.78-.694-13.526-7.565-12.828-15.346l5.986-67.017H148.585l20.124 225.7 86.265 23.954c.448.062 1.3.059 1.745 0l86.542-23.996 6.749-75.57c.694-7.782 7.598-13.523 15.346-12.828 7.78.694 13.526 7.565 12.828 15.346l-7.208 80.697c-.758 8.465-7.005 15.964-15.192 18.238l-91.686 25.423c-2.47.681-5.361 1.024-8.254 1.024zm-.731-28.295l.037.01-.037-.01zm1.46.002a.568.568 0 00-.03.009l.03-.009z"/>
    <path d="M332.594 172.417c-.204 2.27-.556 6.21-.782 8.755l-.567 6.339c-.229 2.544-.553 6.182-.726 8.083-.171 1.902-.334 3.46-.363 3.46H217.124c-2.554 0-4.458 2.082-4.232 4.626l1.991 22.255c.226 2.544 2.503 4.626 5.059 4.626h103.322c2.276 0 3.97 1.857 3.764 4.127s-.562 6.21-.788 8.755l-6.403 71.749c-.229 2.544-.518 5.796-.642 7.225-.127 1.428-2.245 3.155-4.707 3.839l-54.009 14.975c-2.462.682-4.508 1.247-4.546 1.255-.038.008-2.083-.545-4.546-1.228l-54.067-15.002c-2.462-.683-4.662-3.324-4.888-5.868l-3.481-39.062c-.226-2.544 1.679-4.626 4.233-4.626h21.584c2.554 0 4.83 2.082 5.059 4.626l1.365 15.291c.226 2.544 2.43 5.171 4.897 5.837l25.29 6.83c2.465.666 4.493 1.212 4.505 1.212.011 0 2.038-.546 4.505-1.212l25.336-6.846c2.465-.666 4.67-3.294 4.899-5.837l2.747-30.637c.229-2.544-1.675-4.626-4.23-4.626H191.81c-2.554 0-4.83-2.083-5.056-4.626l-6.741-75.538c-.226-2.544-.578-6.483-.782-8.755-.202-2.27 1.723-4.127 4.277-4.127H328.32c2.551-.002 4.476 1.855 4.274 4.125z"/>
  </g>
</svg>
