<svg xmlns="http://www.w3.org/2000/svg" viewBox="0 0 512 512" fill="currentColor" aria-hidden="true">
  <path d="M437.333 213.333c5.888 0 10.667-4.779 10.667-10.667v-128c0-29.397-23.936-53.333-53.333-53.333H53.333C23.936 21.333 0 45.269 0 74.667v362.667c0 29.397 23.936 53.333 53.333 53.333h341.333c29.397 0 53.333-23.936 53.333-53.333v-64c0-5.888-4.779-10.667-10.667-10.667s-10.667 4.779-10.667 10.667v64c0 17.643-14.357 32-32 32H53.333c-17.643 0-32-14.357-32-32V128h405.333v74.667c.001 5.888 4.779 10.666 10.667 10.666zm-416-106.666v-32c0-17.643 14.357-32 32-32h341.333c17.643 0 32 14.357 32 32v32H21.333z"/>
  <circle cx="53.333" cy="74.667" r="10.667"/>
  <circle cx="96" cy="74.667" r="10.667"/>
  <circle cx="138.667" cy="74.667" r="10.667"/>
  <path d="M280.661 277.739l-3.157-.533C258.795 274.155 256 269.291 256 266.667c0-4.245 8.512-10.667 21.355-10.667 12.608 0 20.928 5.995 21.355 10.304.555 5.845 5.611 10.283 11.627 9.6 5.867-.555 10.155-5.76 9.6-11.627-1.621-16.896-19.925-29.632-42.603-29.632-23.936 0-42.688 14.059-42.688 32 0 16.704 13.248 27.328 39.403 31.595l1.728-10.517 1.429 11.051c17.728 2.923 21.44 7.36 21.44 10.56 0 4.245-8.512 10.667-21.355 10.667-12.608 0-20.928-6.016-21.355-10.325-.555-5.867-5.739-10.368-11.627-9.6-5.867.555-10.155 5.76-9.6 11.627 1.621 16.896 19.925 29.632 42.603 29.632 23.936 0 42.688-14.059 42.688-32 0-16.684-13.227-27.308-39.339-31.596zM426.667 266.667c0-17.643-14.357-32-32-32h-21.333c-17.643 0-32 14.357-32 32v42.667c0 17.643 14.357 32 32 32h21.333c4.928 0 9.536-1.216 13.696-3.2l.085.085a10.716 10.716 0 007.552 3.115c2.731 0 5.461-1.045 7.531-3.115 4.16-4.16 4.16-10.923 0-15.083l-.085-.085c2.005-4.16 3.221-8.789 3.221-13.717v-42.667zm-21.334 38.272l-3.136-3.136c-4.16-4.16-10.923-4.16-15.083 0s-4.16 10.923 0 15.083l3.115 3.115h-16.896c-5.888 0-10.667-4.779-10.667-10.667v-42.667c0-5.888 4.779-10.667 10.667-10.667h21.333c5.888 0 10.667 4.779 10.667 10.667v38.272zM501.333 320h-32v-74.667c0-5.888-4.779-10.667-10.667-10.667S448 239.445 448 245.333v85.333c0 5.888 4.779 10.667 10.667 10.667h42.667c5.888 0 10.667-4.779 10.667-10.667S507.221 320 501.333 320zM207.445 278.443c-5.269-2.624-11.669-.512-14.315 4.779l-11.797 23.595-11.797-23.573c-2.645-5.291-9.024-7.403-14.315-4.779-5.269 2.645-7.424 9.045-4.779 14.315l18.944 37.909-18.944 37.867c-2.603 5.269-.469 11.669 4.8 14.315A10.63 10.63 0 00160 384a10.7 10.7 0 009.557-5.909l42.667-85.333c2.624-5.27.491-11.67-4.779-14.315zM120.704 235.221a10.668 10.668 0 00-11.904 3.712l-23.467 31.275-23.467-31.275c-2.752-3.691-7.531-5.163-11.904-3.712a10.668 10.668 0 00-7.296 10.112v85.333c0 5.888 4.779 10.667 10.667 10.667S64 336.555 64 330.667v-53.333L76.8 294.4c4.032 5.376 13.056 5.376 17.067 0l12.8-17.067v53.333c0 5.888 4.779 10.667 10.667 10.667S128 336.555 128 330.667v-85.333c0-4.587-2.944-8.662-7.296-10.113z"/>
</svg>
