<svg xmlns="http://www.w3.org/2000/svg" viewBox="0 0 13 13" fill="currentColor" aria-hidden="true">
  <path d="M11.584 4.623l-.96.34a1.333 1.333 0 00-.667.52l-1.42 2.133a2 2 0 00-.346 1.127v.993a.667.667 0 01-.194.473l-.28.274a.667.667 0 01-.94 0L2.071 5.769a.667.667 0 010-.94l.273-.3a.667.667 0 01.473-.193h.994a2 2 0 001.126-.347l2.134-1.42c.24-.16.423-.394.52-.666l.34-.96a.667.667 0 011.1-.247l2.8 2.8a.666.666 0 01-.247 1.127zM.977 10.156a2 2 0 00-.446.667l-.507 1.22a.333.333 0 00.073.36.333.333 0 00.36.073l1.207-.48a2 2 0 00.667-.447l1.94-1.94-1.347-1.4-1.947 1.947z"/>
</svg>
