<svg xmlns="http://www.w3.org/2000/svg" viewBox="0 0 20 20" fill="currentColor" aria-hidden="true">
  <path
    stroke="currentColor"
    stroke-linecap="round"
    stroke-linejoin="round"
    stroke-width="2"
    d="M3 10.302h4.058c1.07 0 1.805.864 1.805 1.922v2.4c0 1.057-.735 1.921-1.805 1.921H4.805c-.993 0-1.805-.864-1.805-1.922v-4.32zM3 10.302c0-4.507.79-5.252 3.17-6.757M11.137 10.302h4.058c1.07 0 1.805.864 1.805 1.922v2.4c0 1.057-.735 1.921-1.805 1.921h-2.253c-.993 0-1.805-.864-1.805-1.922v-4.32zM11.137 10.302c0-4.507.79-5.252 3.17-6.757"
  />
</svg>
