<svg xmlns="http://www.w3.org/2000/svg" viewBox="0 0 20 20" fill="currentColor" aria-hidden="true">
  <g stroke="#currentColor" stroke-width=".5">
    <path
      d="M18.633 14.047a.59.59 0 00-.814.155l-.735 1.075V6.475c0-2.344-1.925-4.253-4.28-4.253h-6.25a.585.585 0 100 1.169h6.25c1.714 0 3.106 1.386 3.106 3.084v8.818l-.735-1.09a.6.6 0 00-.822-.156.594.594 0 00-.156.817l1.807 2.657c.11.155.297.257.485.257a.612.612 0 00.493-.257l1.807-2.657a.594.594 0 00-.156-.817zM13.446 16.61H7.203c-1.72 0-3.113-1.387-3.113-3.085V4.699l.743 1.099a.59.59 0 00.814.155.594.594 0 00.156-.818L3.996 2.48c-.22-.32-.759-.32-.97 0L1.21 5.135a.594.594 0 00.156.818c.102.063.22.102.329.102a.602.602 0 00.493-.257l.727-1.075v8.802c0 2.344 1.925 4.253 4.287 4.253h6.243a.585.585 0 100-1.169z"
    />
  </g>
</svg>
