<svg xmlns="http://www.w3.org/2000/svg" viewBox="0 0 20 20" fill="currentColor" aria-hidden="true">
  <path fill-rule="evenodd" d="M12.933 14.36l-1.76.36a1.823 1.823 0 01-1.68-.507 1.848 1.848 0 01-.506-1.666l.366-1.794c.06-.333.24-.68.5-.94 4.444-4.405 5.332-5.025 5.84-5.313v-.54c0-1.08-.873-1.96-1.953-1.96H3.96C2.88 2 2 2.88 2 3.96V16.04C2 17.12 2.88 18 3.96 18h9.78c1.08 0 1.953-.88 1.953-1.96V12.5l-1.8 1.353a1.8 1.8 0 01-.96.507zM4.5 6.25C4.5 5.56 5.06 5 5.75 5h3.5a1.25 1.25 0 110 2.5h-3.5c-.69 0-1.25-.56-1.25-1.25zM5.75 9a1.25 1.25 0 100 2.5h.5a1.25 1.25 0 100-2.5h-.5z" clip-rule="evenodd"/>
  <path d="M17.232 6.473a1.525 1.525 0 00-2.153 0c-4.406 4.45-4.373 4.27-4.424 4.55l-.364 1.782a.524.524 0 00.14.47.526.526 0 00.474.143l1.782-.363c.275-.052.074.006 4.549-4.425a1.526 1.526 0 00-.004-2.157z"/>
</svg>
