<svg xmlns="http://www.w3.org/2000/svg" viewBox="0 0 512 512" fill="currentColor" aria-hidden="true">
  <path d="M348.769 479.752H163.231c-7.488 0-10.714-9.521-4.751-14.057 14.546-11.046 24.067-24.849 30.284-38.085 11.359-24.126 11.75-46.316 11.75-46.316h110.97s.391 22.19 11.75 46.316c6.217 13.236 15.738 27.039 30.284 38.085 5.964 4.536 2.739 14.057-4.749 14.057z"/>
  <path d="M319.303 418.241c-7.519-20.207-7.818-36.946-7.818-36.946h-110.97s-.3 16.74-7.818 36.946h126.606z"/>
  <path d="M504.494 69.085v269.019H7.5V69.085c0-20.352 16.481-36.833 36.814-36.833h423.365c20.333 0 36.815 16.481 36.815 36.833z"/>
  <path d="M7.5 311.48h496.994v26.625H7.5z"/>
  <path d="M442.282 94.861h62.212v236.522h-62.212z"/>
  <path d="M442.282 311.48h62.212v19.903h-62.212z"/>
  <path d="M488.208 400.239H23.792c-8.998 0-16.292-7.294-16.292-16.292v-52.564h497v52.564c0 8.998-7.294 16.292-16.292 16.292z"/>
  <g>
    <circle cx="256" cy="365.811" r="11.173"/>
  </g>
  <g>
    <path d="M288.795 248.151v83.232h-65.589v-83.232c0-2.357.245-4.643.714-6.857 3.153-14.816 16.316-25.938 32.08-25.938 9.061 0 17.254 3.673 23.193 9.602a32.835 32.835 0 018.887 16.336c.47 2.215.715 4.5.715 6.857z"/>
    <path d="M223.205 311.48h65.589v19.903h-65.589zM288.08 241.294A59.53 59.53 0 01256 250.63a59.53 59.53 0 01-32.08-9.336c3.153-14.816 16.316-25.938 32.08-25.938 9.061 0 17.254 3.673 23.193 9.602a32.84 32.84 0 018.887 16.336z"/>
    <path d="M300.541 190.78c0 24.6-19.941 44.541-44.541 44.541-24.6 0-44.541-19.941-44.541-44.541 0-6.309 2.932-14.645 7.291-23.561 8.833-18.068 23.536-38.487 31.578-49.13 2.842-3.766 8.502-3.766 11.35 0 10.044 13.3 30.501 41.883 36.9 62.048 1.249 3.926 1.963 7.533 1.963 10.643z"/>
    <path d="M298.578 180.137c-39.946 14.001-67.509-2.536-79.828-12.918 8.833-18.068 23.536-38.487 31.578-49.13 2.842-3.766 8.502-3.766 11.35 0 10.044 13.301 30.502 41.884 36.9 62.048z"/>
  </g>
  <g>
    <path d="M467.679 24.754h-55.37c-4.142 0-7.5 3.357-7.5 7.5s3.358 7.5 7.5 7.5h55.37c16.168 0 29.321 13.154 29.321 29.322v18.281h-54.718a7.5 7.5 0 00-7.5 7.5v229.025H296.298v-75.727c0-6.825-1.687-13.391-4.904-19.273 10.23-9.509 16.646-23.068 16.646-38.103 0-3.698-.78-7.877-2.168-12.388a7.421 7.421 0 00-.217-.736c-.032-.091-.073-.176-.108-.265-6.252-19.308-23.189-44.364-37.885-63.823-2.787-3.689-7.037-5.806-11.661-5.806s-8.875 2.116-11.661 5.806c-18.42 24.389-40.379 57.581-40.379 77.212 0 15.039 6.419 28.601 16.653 38.11a40.137 40.137 0 00-4.913 19.266v75.727H15V205.918c15.967 13.766 25.776 33.74 26.617 55.045-8.897 3.129-15.295 11.611-15.295 21.565 0 12.603 10.253 22.855 22.855 22.855s22.855-10.253 22.855-22.855c0-9.993-6.449-18.502-15.401-21.601-.989-29.645-16.505-57.192-41.26-73.481h64.811c3.111 8.929 11.609 15.355 21.585 15.355 12.603 0 22.855-10.253 22.855-22.855s-10.253-22.855-22.855-22.855c-9.975 0-18.473 6.427-21.585 15.355H15V69.076c0-16.168 13.153-29.322 29.321-29.322h337.37c4.142 0 7.5-3.357 7.5-7.5s-3.358-7.5-7.5-7.5H44.321C19.882 24.754 0 44.637 0 69.076v314.871c0 13.119 10.673 23.792 23.792 23.792h61.232c4.142 0 7.5-3.357 7.5-7.5s-3.358-7.5-7.5-7.5H23.792c-4.848 0-8.792-3.944-8.792-8.792v-45.064h482v45.064c0 4.848-3.944 8.792-8.792 8.792h-34.565c-4.142 0-7.5 3.357-7.5 7.5s3.358 7.5 7.5 7.5h34.565c13.119 0 23.792-10.673 23.792-23.792V69.076c0-24.439-19.882-44.322-44.321-44.322zm-211.678 98.264c15.42 20.459 26.883 38.913 32.716 52.291-28.015 7.33-48.503-1.729-60.431-10.191 6.419-11.94 15.905-26.431 27.715-42.1zm-37.04 67.762c0-3.025.991-7.059 2.854-11.9 10.745 7.157 26.432 14.195 46.569 14.195 7.582 0 15.799-1.005 24.617-3.371.025.371.04.731.04 1.076 0 20.424-16.616 37.04-37.04 37.04s-37.04-16.616-37.04-37.04zm37.04 52.04a51.71 51.71 0 0022.926-5.337 25.12 25.12 0 012.371 10.673v75.722h-50.597v-75.722c0-3.725.809-7.358 2.358-10.681a51.71 51.71 0 0022.942 5.345zM49.177 290.384c-4.332 0-7.855-3.524-7.855-7.855s3.524-7.855 7.855-7.855 7.855 3.524 7.855 7.855-3.524 7.855-7.855 7.855zm52.591-118.293c4.332 0 7.855 3.524 7.855 7.855s-3.524 7.855-7.855 7.855-7.855-3.524-7.855-7.855 3.524-7.855 7.855-7.855zm348.014 151.792v-4.556h13.402c4.142 0 7.5-3.357 7.5-7.5s-3.358-7.5-7.5-7.5h-13.402V293.35h13.402c4.142 0 7.5-3.357 7.5-7.5s-3.358-7.5-7.5-7.5h-13.402v-10.978h13.402c4.142 0 7.5-3.357 7.5-7.5s-3.358-7.5-7.5-7.5h-13.402v-10.977h23.606c4.142 0 7.5-3.357 7.5-7.5s-3.358-7.5-7.5-7.5h-23.606v-10.978h13.402c4.142 0 7.5-3.357 7.5-7.5s-3.358-7.5-7.5-7.5h-13.402V189.44h13.402c4.142 0 7.5-3.357 7.5-7.5s-3.358-7.5-7.5-7.5h-13.402v-10.977h13.402c4.142 0 7.5-3.357 7.5-7.5s-3.358-7.5-7.5-7.5h-13.402v-10.978h23.606c4.142 0 7.5-3.357 7.5-7.5s-3.358-7.5-7.5-7.5h-23.606v-20.129H497v221.525h-47.218z"/>
    <path d="M423.024 392.739H115.642c-4.142 0-7.5 3.357-7.5 7.5s3.358 7.5 7.5 7.5h72.663c-4.907 16.644-14.72 37.088-34.353 51.987-5.323 4.039-7.385 10.743-5.253 17.078 2.134 6.343 7.836 10.441 14.527 10.441h185.547c6.69 0 12.393-4.099 14.527-10.441 2.132-6.335.07-13.039-5.253-17.078-19.657-14.917-29.464-35.406-34.355-51.987h99.332c4.142 0 7.5-3.357 7.5-7.5s-3.357-7.5-7.5-7.5zm-74.044 78.937c.097.073.13.119.132.119.03.108-.061.37-.146.43 0 0-.053.021-.192.021H163.227c-.132 0-.186-.019-.188-.019-.09-.063-.181-.326-.154-.424a.56.56 0 01.136-.128c24.521-18.61 35.731-44.313 40.853-63.937h104.254c5.098 19.53 16.291 45.299 40.852 63.938zM209.865 71.675v1.681c0 4.143 3.358 7.5 7.5 7.5s7.5-3.357 7.5-7.5v-1.681c0-4.143-3.358-7.5-7.5-7.5s-7.5 3.357-7.5 7.5zM248.5 71.675v1.681c0 4.143 3.358 7.5 7.5 7.5s7.5-3.357 7.5-7.5v-1.681c0-4.143-3.358-7.5-7.5-7.5s-7.5 3.357-7.5 7.5zM287.135 71.675v1.681c0 4.143 3.358 7.5 7.5 7.5s7.5-3.357 7.5-7.5v-1.681c0-4.143-3.358-7.5-7.5-7.5s-7.5 3.357-7.5 7.5zM274.673 365.812c0-10.297-8.377-18.674-18.673-18.674s-18.673 8.377-18.673 18.674c0 10.296 8.377 18.673 18.673 18.673s18.673-8.378 18.673-18.673zm-22.346 0c0-2.025 1.648-3.674 3.673-3.674s3.673 1.648 3.673 3.674-1.648 3.673-3.673 3.673-3.673-1.648-3.673-3.673z"/>
  </g>
</svg>
