<svg width="20" height="20" viewBox="0 0 20 20" fill="none" xmlns="http://www.w3.org/2000/svg">
<path d="M4 3.5H11C11.9283 3.5 12.8185 3.84241 13.4749 4.4519C14.1313 5.0614 14.5 5.88805 14.5 6.75C14.5 7.61195 14.1313 8.4386 13.4749 9.0481C12.8185 9.65759 11.9283 10 11 10H4V3.5Z" stroke="#999999" stroke-width="2" stroke-linecap="round" stroke-linejoin="round"/>
<path d="M4 10H11.875C12.8033 10 13.6935 10.3424 14.3499 10.9519C15.0063 11.5614 15.375 12.388 15.375 13.25C15.375 14.112 15.0063 14.9386 14.3499 15.5481C13.6935 16.1576 12.8033 16.5 11.875 16.5H4V10Z" stroke="#999999" stroke-width="2" stroke-linecap="round" stroke-linejoin="round"/>
</svg>
