<svg width="20" height="20" viewBox="0 0 20 20" fill="none" xmlns="http://www.w3.org/2000/svg">
<path d="M5.18233 17.6024C5.1263 17.5757 5.07924 17.5333 5.04689 17.4804C5.01454 17.4274 4.9983 17.3662 5.00014 17.3042C5.00198 17.2421 5.02183 17.182 5.05727 17.131C5.0927 17.0801 5.14219 17.0406 5.19971 17.0173C6.72279 16.4003 6.23151 14.664 6.68455 13.7359C6.95038 13.1995 7.41674 12.7893 7.98271 12.5941C8.54869 12.399 9.16874 12.4345 9.70871 12.6931C13.1088 14.354 9.06158 19.4488 5.18233 17.6024Z" stroke="currentColor" stroke-width="2" stroke-linecap="round" stroke-linejoin="round"/>
<path d="M12.428 12.7235L17.5135 6.28351C17.6428 6.12722 17.7064 5.92689 17.6911 5.72463C17.6758 5.52236 17.5827 5.33391 17.4313 5.19889C17.2799 5.06387 17.0821 4.99278 16.8794 5.00058C16.6767 5.00838 16.4849 5.09445 16.3444 5.2407L10.6135 10.9565" stroke="currentColor" stroke-width="2" stroke-linecap="round" stroke-linejoin="round"/>
</svg>
