<svg width="20" height="20" viewBox="0 0 20 20" fill="none" xmlns="http://www.w3.org/2000/svg">
  <path
    fill-rule="evenodd"
    clip-rule="evenodd"
    d="M12.5 2.39838C11.7135 2.13985 10.8731 2 10 2C5.58172 2 2 5.58172 2 10C2 14.4183 5.58172 18 10 18C14.4183 18 18 14.4183 18 10C18 9.12694 17.8601 8.28655 17.6016 7.5H17.5V8C17.5 9.02792 16.8796 9.91094 15.9929 10.2951C15.839 13.4717 13.2148 16 10 16C6.68629 16 4 13.3137 4 10C4 6.78523 6.52828 4.16097 9.70492 4.00713C10.0891 3.12037 10.9721 2.5 12 2.5H12.5V2.39838ZM10.9023 7.24673C10.5173 7.58209 10.4442 8.16179 10.7485 8.58438L11.7678 10.0001L10.7485 11.4158C10.4258 11.864 10.5275 12.4889 10.9757 12.8116C11.4239 13.1343 12.0488 13.0326 12.3715 12.5844L13.8115 10.5844C13.8805 10.4887 13.9305 10.3838 13.9616 10.2748C13.0992 9.8805 12.5 9.01023 12.5 8V7.59419L12.4322 7.5H12C11.6062 7.5 11.2336 7.40894 10.9023 7.24673ZM9.0243 7.18854C9.4725 7.51124 9.57424 8.13618 9.25153 8.58438L8.23223 10.0001L9.25153 11.4158C9.57424 11.864 9.4725 12.4889 9.0243 12.8116C8.57611 13.1343 7.95117 13.0326 7.62847 12.5844L6.18847 10.5844C5.93718 10.2354 5.93718 9.76478 6.18847 9.41577L7.62847 7.41577C7.95117 6.96757 8.57611 6.86584 9.0243 7.18854Z"
    fill="currentColor"
  />
  <path
    fill-rule="evenodd"
    clip-rule="evenodd"
    d="M15 1C15.5523 1 16 1.44772 16 2V4L18 4C18.5523 4 19 4.44772 19 5C19 5.55228 18.5523 6 18 6H16V8C16 8.55229 15.5523 9 15 9C14.4477 9 14 8.55229 14 8V6H12C11.4477 6 11 5.55228 11 5C11 4.44771 11.4477 4 12 4L14 4V2C14 1.44772 14.4477 1 15 1Z"
    fill="currentColor"
  />
</svg>
