<svg width="20" height="20" viewBox="0 0 20 20" fill="none" xmlns="http://www.w3.org/2000/svg">
<path fill-rule="evenodd" clip-rule="evenodd" d="M4 10C4 6.68629 6.68629 4 10 4C13.3137 4 16 6.68629 16 10C16 13.3137 13.3137 16 10 16C6.68629 16 4 13.3137 4 10ZM10 2C5.58172 2 2 5.58172 2 10C2 14.4183 5.58172 18 10 18C14.4183 18 18 14.4183 18 10C18 5.58172 14.4183 2 10 2ZM9.25153 8.58438C9.57424 8.13618 9.4725 7.51124 9.0243 7.18854C8.57611 6.86584 7.95117 6.96757 7.62847 7.41577L6.18847 9.41577C5.93718 9.76478 5.93718 10.2354 6.18847 10.5844L7.62847 12.5844C7.95117 13.0326 8.57611 13.1343 9.0243 12.8116C9.4725 12.4889 9.57424 11.864 9.25153 11.4158L8.23223 10.0001L9.25153 8.58438ZM12.3715 7.41577C12.0488 6.96757 11.4239 6.86584 10.9757 7.18854C10.5275 7.51124 10.4258 8.13618 10.7485 8.58438L11.7678 10.0001L10.7485 11.4158C10.4258 11.864 10.5275 12.4889 10.9757 12.8116C11.4239 13.1343 12.0488 13.0326 12.3715 12.5844L13.8115 10.5844C14.0628 10.2354 14.0628 9.76478 13.8115 9.41577L12.3715 7.41577Z" fill="currentColor"/>
</svg>
