<svg width="20" height="20" viewBox="0 0 20 20" fill="none" xmlns="http://www.w3.org/2000/svg">
<path fill-rule="evenodd" clip-rule="evenodd" d="M18.2071 3.20711C18.5976 2.81658 18.5976 2.18342 18.2071 1.79289C17.8166 1.40237 17.1834 1.40237 16.7929 1.79289L13.5 5.08579L12.2071 3.79289C11.8166 3.40237 11.1834 3.40237 10.7929 3.79289C10.4024 4.18342 10.4024 4.81658 10.7929 5.20711L12.7929 7.20711C13.1834 7.59763 13.8166 7.59763 14.2071 7.20711L18.2071 3.20711ZM10 2C10.2884 2 10.5733 2.01526 10.8539 2.04503C10.4316 2.19035 10.0402 2.42427 9.73223 2.73223C9.35206 3.11241 9.11993 3.58456 9.03583 4.07706C6.18051 4.53829 4 7.0145 4 10C4 13.3137 6.68629 16 10 16C13.3137 16 16 13.3137 16 10C16 9.26486 15.8678 8.56059 15.6258 7.90969L17.1426 6.39294C17.691 7.47675 18 8.70229 18 10C18 14.4183 14.4183 18 10 18C5.58172 18 2 14.4183 2 10C2 5.58172 5.58172 2 10 2ZM10.7485 8.58438C10.4714 8.19954 10.5072 7.68439 10.8066 7.34215L11.7322 8.26777C12.2235 8.75901 12.8683 9.00308 13.5122 8.99997L13.8115 9.41577C14.0628 9.76478 14.0628 10.2354 13.8115 10.5844L12.3715 12.5844C12.0488 13.0326 11.4239 13.1343 10.9757 12.8116C10.5275 12.4889 10.4258 11.864 10.7485 11.4158L11.7678 10.0001L10.7485 8.58438ZM9.25153 8.58438C9.57424 8.13618 9.4725 7.51124 9.0243 7.18854C8.57611 6.86584 7.95117 6.96757 7.62847 7.41577L6.18847 9.41577C5.93718 9.76478 5.93718 10.2354 6.18847 10.5844L7.62847 12.5844C7.95117 13.0326 8.57611 13.1343 9.0243 12.8116C9.4725 12.4889 9.57424 11.864 9.25153 11.4158L8.23223 10.0001L9.25153 8.58438Z" fill="#101011"/>
</svg>
