<svg width="20" height="20" viewBox="0 0 20 20" fill="none" xmlns="http://www.w3.org/2000/svg">
<path fill-rule="evenodd" clip-rule="evenodd" d="M3 7C3 5.89543 3.89543 5 5 5H15C16.1046 5 17 5.89543 17 7V13C17 14.1046 16.1046 15 15 15H5C3.89543 15 3 14.1046 3 13V7ZM9 10C9 11.1046 8.10457 12 7 12C5.89543 12 5 11.1046 5 10C5 8.89543 5.89543 8 7 8C8.10457 8 9 8.89543 9 10ZM11 9C10.4477 9 10 9.44772 10 10C10 10.5523 10.4477 11 11 11H14C14.5523 11 15 10.5523 15 10C15 9.44772 14.5523 9 14 9H11Z" fill="currentColor"/>
</svg>
