<svg width="20" height="20" viewBox="0 0 20 20" fill="none" xmlns="http://www.w3.org/2000/svg">
<path d="M2.0578 13.698C2.19373 15.4051 3.76019 16.8228 5.6658 16.9527C6.10526 16.9823 6.54999 17 7 17C7.44869 17 7.89474 16.9823 8.3342 16.9527C10.2411 16.8228 11.8063 15.4051 11.9422 13.698C11.9765 13.2762 11.9976 12.8509 11.9976 12.4197C11.9976 11.308 12.0135 10.2246 11.9633 9.1826C11.949 8.90793 11.8221 8.64763 11.6069 8.45146C11.3917 8.2553 11.1032 8.13705 10.7967 8.11933C8.26913 7.96022 5.73219 7.96022 3.2046 8.11933C2.89786 8.13677 2.60909 8.2549 2.39359 8.45109C2.17809 8.64728 2.05101 8.90774 2.03668 9.1826C1.98654 10.2246 2.00237 11.308 2.00237 12.4197C2.00237 12.8509 2.02349 13.2762 2.0578 13.698V13.698Z" fill="currentColor"/>
<path fill-rule="evenodd" clip-rule="evenodd" d="M3.13147 7.12389C5.7079 6.95869 8.29387 6.9587 10.8703 7.12392C11.4195 7.15702 11.9363 7.37336 12.3221 7.73179C12.7086 8.09091 12.9365 8.56746 12.9622 9.0703L12.9623 9.07347L12.9623 9.07347C13.0038 9.95314 13.0013 10.8636 12.9988 11.7701C12.9982 11.9864 12.9976 12.2026 12.9976 12.418C12.9976 12.8846 12.9752 13.3413 12.9395 13.789C12.7679 15.9758 10.8149 17.7822 8.41173 17.9491L8.41069 17.9492C7.95031 17.9807 7.47837 18 7 18C6.52027 18 6.04964 17.9807 5.5893 17.9492L5.58822 17.9491C3.18635 17.7822 1.23171 15.9756 1.06049 13.7883C1.02479 13.3409 1.0024 12.8844 1.0024 12.418C1.0024 12.2026 1.0018 11.9864 1.0012 11.7701C0.998689 10.8636 0.996163 9.95314 1.03769 9.07347L1.03784 9.07024L1.03785 9.07024C1.06358 8.56705 1.2918 8.09022 1.67881 7.73104C2.06493 7.3727 2.58202 7.1566 3.13147 7.12389ZM2.04937 13.7233L3.03831 13.659C3.13976 14.9578 4.32308 16.0462 5.73858 16.1447C6.15837 16.1735 6.57845 16.1904 7 16.1904C7.42034 16.1904 7.84183 16.1735 8.26166 16.1447C9.67811 16.0461 10.8602 14.958 10.9617 13.659L10.9618 13.6576C10.9948 13.2439 11.0147 12.832 11.0147 12.418C11.0147 12.1914 11.0153 11.9679 11.0159 11.747C11.0183 10.8449 11.0206 9.98719 10.9814 9.15351C10.9781 9.09578 10.9518 9.04111 10.9074 8.99985C10.8628 8.95834 10.8029 8.93333 10.7393 8.92958L10.7337 8.92924L10.7337 8.92923C8.24806 8.76973 5.75326 8.76973 3.26767 8.92923L3.26098 8.92966L3.26098 8.92964C3.19732 8.93333 3.13739 8.95832 3.09266 8.99983C3.0482 9.04109 3.02187 9.0958 3.01865 9.15357C2.97936 9.98724 2.98167 10.8449 2.9841 11.747C2.9847 11.9679 2.9853 12.1914 2.9853 12.418C2.9853 12.832 3.00519 13.2439 3.0382 13.6576L2.04937 13.7233Z" fill="currentColor"/>
<path fill-rule="evenodd" clip-rule="evenodd" d="M12.1055 10.5644L12.0966 10.564L12.1505 9C12.1548 9.00018 12.1591 9.00036 12.1635 9.00054C12.2574 9.00449 13.3598 9.00879 13.464 9.01517C14.8449 9.09468 17 10.3101 17 11.9982C17 13.6868 14.8455 14.9042 13.4632 14.9824C13.3155 14.9913 12.1709 14.9967 12.0297 15L12 13.4352C12.1287 13.4322 13.2577 13.4273 13.3874 13.4195L13.39 13.4193C14.1676 13.3758 15.5825 12.6986 15.5825 11.9982C15.5825 11.2997 14.1683 10.6225 13.3894 10.5781L13.3866 10.578C13.2947 10.5723 12.2028 10.5685 12.1055 10.5644Z" fill="currentColor"/>
<path fill-rule="evenodd" clip-rule="evenodd" d="M5.83444 2C6.3178 2 6.70965 2.39184 6.70965 2.87521V4.99088C6.70965 5.47425 6.3178 5.86609 5.83444 5.86609C5.35107 5.86609 4.95923 5.47425 4.95923 4.99088V2.87521C4.95923 2.39184 5.35107 2 5.83444 2Z" fill="currentColor"/>
<path fill-rule="evenodd" clip-rule="evenodd" d="M8.75998 2C9.24334 2 9.63519 2.39184 9.63519 2.87521V4.99088C9.63519 5.47425 9.24334 5.86609 8.75998 5.86609C8.27661 5.86609 7.88477 5.47425 7.88477 4.99088V2.87521C7.88477 2.39184 8.27661 2 8.75998 2Z" fill="currentColor"/>
</svg>
