<svg width="20" height="20" viewBox="0 0 20 20" fill="none" xmlns="http://www.w3.org/2000/svg">
  <path
    fill-rule="evenodd"
    clip-rule="evenodd"
    d="M5 4C3.89543 4 3 4.89543 3 6V14C3 15.1046 3.89543 16 5 16H15C16.1046 16 17 15.1046 17 14V6C17 4.89543 16.1046 4 15 4H5ZM7 10C8.10457 10 9 9.10457 9 8C9 6.89543 8.10457 6 7 6C5.89543 6 5 6.89543 5 8C5 9.10457 5.89543 10 7 10ZM10 8C10 7.44772 10.4477 7 11 7H14C14.5523 7 15 7.44772 15 8C15 8.55228 14.5523 9 14 9H11C10.4477 9 10 8.55228 10 8ZM6 12C5.44772 12 5 12.4477 5 13C5 13.5523 5.44772 14 6 14H14C14.5523 14 15 13.5523 15 13C15 12.4477 14.5523 12 14 12H6Z"
    fill="currentColor"
  />
</svg>
