<svg width="20" height="20" viewBox="0 0 20 20" fill="none" xmlns="http://www.w3.org/2000/svg">
<path d="M17.6667 15H18.0001C18.5521 15 19.0001 14.5524 19.0001 14V3.66669C19.0001 3.11435 18.5521 2.66669 18.0001 2.66669H4.66675C4.11441 2.66669 3.66675 3.11435 3.66675 3.66669V4.00002H17.6667V15Z" fill="currentColor"/>
<path d="M15.6667 5H2C1.448 5 1 5.44767 1 6V16.3333C1 16.8857 1.448 17.3333 2 17.3333H15.6667C16.2187 17.3333 16.6667 16.8857 16.6667 16.3333V6C16.6667 5.44767 16.2187 5 15.6667 5ZM15.3333 15.3333H2.33333V14L7 9.33333L10.1667 12.5L12 10.6667L15.3333 14V15.3333Z" fill="currentColor"/>
</svg>
