<svg width="18" height="18" viewBox="0 0 18 18" fill="none" xmlns="http://www.w3.org/2000/svg">
  <path
    fill-rule="evenodd"
    clip-rule="evenodd"
    d="M5 3C3.89543 3 3 3.89543 3 5V13.6C3 14.7046 3.89543 15.6 5 15.6H13.6C14.7046 15.6 15.6 14.7046 15.6 13.6V5C15.6 3.89543 14.7046 3 13.6 3H5ZM6.6457 9.13437C6.47262 9.13437 6.33314 9.18722 6.25405 9.24627C6.21677 9.2741 6.20147 9.29657 6.1966 9.30537L6.1957 9.30703V11.8117L6.1966 11.8134C6.20147 11.8222 6.21677 11.8446 6.25405 11.8725C6.33314 11.9315 6.47262 11.9844 6.6457 11.9844C6.81879 11.9844 6.95827 11.9315 7.03735 11.8725C7.07463 11.8446 7.08993 11.8222 7.09481 11.8134L7.0957 11.8117V11.645C6.77646 11.5915 6.5332 11.3138 6.5332 10.9794C6.5332 10.6066 6.83541 10.3044 7.2082 10.3044H7.7707C8.14349 10.3044 8.4457 10.6066 8.4457 10.9794V11.8194C8.4457 12.2954 8.19158 12.6955 7.84504 12.9542C7.50217 13.2102 7.06935 13.3344 6.6457 13.3344C6.22205 13.3344 5.78923 13.2102 5.44636 12.9542C5.09982 12.6955 4.8457 12.2954 4.8457 11.8194V9.29937C4.8457 8.82334 5.09982 8.42329 5.44636 8.16454C5.78924 7.90853 6.22205 7.78437 6.6457 7.78437H7.7707C8.14349 7.78437 8.4457 8.08658 8.4457 8.45937C8.4457 8.83217 8.14349 9.13437 7.7707 9.13437H6.6457ZM10.2738 8.45937C10.2738 8.08658 9.97162 7.78437 9.59883 7.78437C9.22604 7.78437 8.92383 8.08658 8.92383 8.45937V12.6594C8.92383 13.0322 9.22604 13.3344 9.59883 13.3344C9.97162 13.3344 10.2738 13.0322 10.2738 12.6594V8.45937ZM12.2982 9.13437C12.2544 9.13437 12.2125 9.15176 12.1815 9.1827C12.1506 9.21364 12.1332 9.25561 12.1332 9.29937V10.3051H12.7182C13.091 10.3051 13.3932 10.6073 13.3932 10.9801C13.3932 11.3529 13.091 11.6551 12.7182 11.6551H12.1332V12.6594C12.1332 13.0322 11.831 13.3344 11.4582 13.3344C11.0854 13.3344 10.7832 13.0322 10.7832 12.6594V10.9801V9.29937C10.7832 8.89757 10.9428 8.51223 11.2269 8.22811C11.5111 7.94399 11.8964 7.78437 12.2982 7.78437H13.1382C13.511 7.78437 13.8132 8.08658 13.8132 8.45937C13.8132 8.83217 13.511 9.13437 13.1382 9.13437H12.2982Z"
    fill="currentColor"
  ></path>
</svg>
