<svg width="13" height="13" viewBox="0 0 13 13" fill="none" xmlns="http://www.w3.org/2000/svg">
<path fill-rule="evenodd" clip-rule="evenodd" d="M2 0C0.895431 0 0 0.89543 0 2V10.6C0 11.7046 0.89543 12.6 2 12.6H10.6C11.7046 12.6 12.6 11.7046 12.6 10.6V2C12.6 0.895431 11.7046 0 10.6 0H2ZM3.6457 6.13437C3.47262 6.13437 3.33314 6.18722 3.25405 6.24627C3.21677 6.2741 3.20147 6.29657 3.1966 6.30537L3.1957 6.30703V8.81172L3.1966 8.81338C3.20147 8.82217 3.21677 8.84464 3.25405 8.87248C3.33314 8.93153 3.47262 8.98437 3.6457 8.98437C3.81879 8.98437 3.95827 8.93153 4.03735 8.87248C4.07463 8.84464 4.08993 8.82217 4.09481 8.81338L4.0957 8.81172V8.64504C3.77646 8.59148 3.5332 8.31384 3.5332 7.97937C3.5332 7.60658 3.83541 7.30437 4.2082 7.30437H4.7707C5.14349 7.30437 5.4457 7.60658 5.4457 7.97937V8.81937C5.4457 9.29541 5.19158 9.69546 4.84504 9.95421C4.50217 10.2102 4.06935 10.3344 3.6457 10.3344C3.22205 10.3344 2.78923 10.2102 2.44636 9.95421C2.09982 9.69546 1.8457 9.29541 1.8457 8.81937V6.29937C1.8457 5.82334 2.09982 5.42329 2.44636 5.16454C2.78924 4.90853 3.22205 4.78437 3.6457 4.78437H4.7707C5.14349 4.78437 5.4457 5.08658 5.4457 5.45937C5.4457 5.83217 5.14349 6.13437 4.7707 6.13437H3.6457ZM7.27383 5.45937C7.27383 5.08658 6.97162 4.78437 6.59883 4.78437C6.22604 4.78437 5.92383 5.08658 5.92383 5.45937V9.65937C5.92383 10.0322 6.22604 10.3344 6.59883 10.3344C6.97162 10.3344 7.27383 10.0322 7.27383 9.65937V5.45937ZM9.29859 6.13437C9.25483 6.13437 9.21286 6.15176 9.18192 6.1827C9.15098 6.21364 9.13359 6.25561 9.13359 6.29937V7.30508H9.71859C10.0914 7.30508 10.3936 7.60729 10.3936 7.98008C10.3936 8.35287 10.0914 8.65508 9.71859 8.65508H9.13359V9.65937C9.13359 10.0322 8.83138 10.3344 8.45859 10.3344C8.0858 10.3344 7.78359 10.0322 7.78359 9.65937V7.98008V6.29937C7.78359 5.89757 7.94321 5.51223 8.22733 5.22811C8.51144 4.94399 8.89679 4.78437 9.29859 4.78437H10.1386C10.5114 4.78437 10.8136 5.08658 10.8136 5.45937C10.8136 5.83217 10.5114 6.13437 10.1386 6.13437H9.29859Z" fill="currentColor"/>
</svg>
