<svg width="20" height="20" viewBox="0 0 20 20" fill="none" xmlns="http://www.w3.org/2000/svg">
<path d="M3 5C3 3.89543 3.89543 3 5 3H15C16.1046 3 17 3.89543 17 5V15C17 16.1046 16.1046 17 15 17H5C3.89543 17 3 16.1046 3 15V5Z" fill="#666666"/>
<path d="M12.4 13.7333V9.99998C12.4 9.75245 12.4983 9.51505 12.6733 9.34002C12.8484 9.16498 13.0858 9.06665 13.3333 9.06665H14.2666" stroke="white" stroke-linecap="round" stroke-linejoin="round"/>
<path d="M12.4 11.8666H13.8" stroke="white" stroke-linecap="round" stroke-linejoin="round"/>
<path d="M10.3333 13.7333V9.06665" stroke="white" stroke-linecap="round" stroke-linejoin="round"/>
<path d="M7.675 11.8667H8.3V12.8C8.3 13.0475 8.16831 13.2849 7.93389 13.4599C7.69947 13.635 7.38152 13.7333 7.05 13.7333C6.71848 13.7333 6.40054 13.635 6.16612 13.4599C5.9317 13.2849 5.8 13.0475 5.8 12.8V9.99998C5.8 9.75245 5.9317 9.51505 6.16612 9.34002C6.40054 9.16498 6.71848 9.06665 7.05 9.06665H8.3" stroke="white" stroke-linecap="round" stroke-linejoin="round"/>
</svg>
