<svg width="20" height="20" viewBox="0 0 20 20" fill="none" xmlns="http://www.w3.org/2000/svg">
<path d="M17.2079 8.64062H10.1513V11.541H14.1826C14.0087 12.4785 13.4814 13.2715 12.6865 13.8027C12.0146 14.252 11.1572 14.5176 10.1494 14.5176C8.19818 14.5176 6.54779 13.1992 5.95795 11.4277C5.80951 10.9785 5.72357 10.498 5.72357 10.0039C5.72357 9.50977 5.80951 9.0293 5.95795 8.58008C6.54974 6.81055 8.20013 5.49219 10.1513 5.49219C11.2509 5.49219 12.2372 5.87109 13.0146 6.61328L15.163 4.46289C13.8642 3.25195 12.1708 2.50977 10.1513 2.50977C7.22357 2.50977 4.69037 4.18945 3.45795 6.63867C2.95013 7.65039 2.66107 8.79492 2.66107 10.0059C2.66107 11.2168 2.95013 12.3594 3.45795 13.3711C4.69037 15.8203 7.22357 17.5 10.1513 17.5C12.1747 17.5 13.8701 16.8281 15.1083 15.6836C16.5244 14.3789 17.3427 12.457 17.3427 10.1738C17.3427 9.64258 17.2958 9.13281 17.2079 8.64062Z" fill="#14171A"/>
</svg>
