<?xml version="1.0" encoding="iso-8859-1"?>
<!-- Generator: Adobe Illustrator 19.0.0, SVG Export Plug-In . SVG Version: 6.00 Build 0)  -->
<svg version="1.1" id="Layer_1" xmlns="http://www.w3.org/2000/svg" xmlns:xlink="http://www.w3.org/1999/xlink" x="0px" y="0px"
	 viewBox="0 0 512 512" style="enable-background:new 0 0 512 512;" xml:space="preserve">
<g>
	<path style="fill:#B3404A;" d="M60.761,139.883c-7.81,0-14.144-6.334-14.144-14.144V60.761c0-7.81,6.334-14.144,14.144-14.144
		h64.979c7.81,0,14.144,6.334,14.144,14.144s-6.334,14.144-14.144,14.144H74.905v50.835
		C74.905,133.551,68.571,139.883,60.761,139.883z"/>
	<path style="fill:#B3404A;" d="M451.239,465.383H386.26c-7.81,0-14.144-6.334-14.144-14.144s6.334-14.144,14.144-14.144h50.835
		V386.26c0-7.81,6.334-14.144,14.144-14.144c7.81,0,14.144,6.334,14.144,14.144v64.979
		C465.383,459.05,459.05,465.383,451.239,465.383z"/>
	<path style="fill:#B3404A;" d="M497.856,512H14.144C6.334,512,0,505.667,0,497.856V14.144C0,6.334,6.334,0,14.144,0h483.713
		C505.667,0,512,6.334,512,14.144v483.713C512,505.667,505.667,512,497.856,512z M28.287,483.713h455.425V28.287H28.287V483.713z"/>
</g>
<path style="fill:#F4B2B0;" d="M371.515,199.425l6.947-77.791c0.229-2.544-1.677-4.626-4.232-4.626H137.768
	c-2.554,0-4.458,2.082-4.232,4.626l21.539,241.599c0.226,2.544,2.426,5.186,4.888,5.87l91.402,25.378
	c2.462,0.683,6.491,0.683,8.953,0.001l91.679-25.42c2.462-0.683,4.665-3.324,4.891-5.868l7.208-80.697"/>
<g>
	<path style="fill:#B3404A;" d="M255.844,409.138c-2.897,0-5.793-0.344-8.264-1.031l-91.4-25.376
		c-8.191-2.274-14.438-9.776-15.192-18.244L119.447,122.89c-0.458-5.158,1.264-10.287,4.727-14.072
		c3.462-3.785,8.417-5.954,13.593-5.954h236.465c5.178,0,10.134,2.171,13.598,5.959c3.461,3.786,5.182,8.916,4.721,14.073
		l-6.949,77.789c-0.694,7.782-7.581,13.533-15.346,12.828c-7.78-0.694-13.526-7.565-12.828-15.346l5.986-67.017H148.585
		l20.124,225.7l86.265,23.954c0.448,0.062,1.3,0.059,1.745,0l86.542-23.996l6.749-75.57c0.694-7.782,7.598-13.523,15.346-12.828
		c7.78,0.694,13.526,7.565,12.828,15.346l-7.208,80.697c-0.758,8.465-7.005,15.964-15.192,18.238l-91.686,25.423
		C261.628,408.795,258.737,409.138,255.844,409.138z M255.113,380.843l0.037,0.01C255.139,380.849,255.126,380.846,255.113,380.843z
		 M256.573,380.845c-0.011,0.003-0.021,0.006-0.03,0.009L256.573,380.845z"/>
	<path style="fill:#B3404A;" d="M332.594,172.417c-0.204,2.27-0.556,6.21-0.782,8.755l-0.567,6.339
		c-0.229,2.544-0.553,6.182-0.726,8.083c-0.171,1.902-0.334,3.46-0.363,3.46c-0.028,0-2.143,0-4.699,0h-64.81
		c-2.554,0-4.666,0-4.694,0c-0.028,0-2.141,0-4.696,0h-34.133c-2.554,0-4.458,2.082-4.232,4.626l1.991,22.255
		c0.226,2.544,2.503,4.626,5.059,4.626h31.317c2.554,0,4.669,0,4.696,0c0.027,0,2.14,0,4.694,0h53.829c2.554,0,6.509,0,8.786,0
		c2.276,0,3.97,1.857,3.764,4.127s-0.562,6.21-0.788,8.755l-6.403,71.749c-0.229,2.544-0.518,5.796-0.642,7.225
		c-0.127,1.428-2.245,3.155-4.707,3.839l-54.009,14.975c-2.462,0.682-4.508,1.247-4.546,1.255c-0.038,0.008-2.083-0.545-4.546-1.228
		l-54.067-15.002c-2.462-0.683-4.662-3.324-4.888-5.868l-3.481-39.062c-0.226-2.544,1.679-4.626,4.233-4.626h4.935
		c2.554,0,6.735,0,9.291,0h7.358c2.554,0,4.83,2.082,5.059,4.626l1.365,15.291c0.226,2.544,2.43,5.171,4.897,5.837l25.29,6.83
		c2.465,0.666,4.493,1.212,4.505,1.212c0.011,0,2.038-0.546,4.505-1.212l25.336-6.846c2.465-0.666,4.67-3.294,4.899-5.837
		l2.747-30.637c0.229-2.544-1.675-4.626-4.23-4.626h-28.491c-2.554,0-4.666,0-4.694,0c-0.028,0-2.141,0-4.696,0h-59.45
		c-2.554,0-4.83-2.083-5.056-4.626l-6.741-75.538c-0.226-2.544-0.578-6.483-0.782-8.755c-0.202-2.27,1.723-4.127,4.277-4.127h67.752
		c2.554,0,4.669,0,4.696,0c0.027,0,2.14,0,4.694,0h67.67C330.871,168.29,332.796,170.147,332.594,172.417z"/>
</g>
<g>
</g>
<g>
</g>
<g>
</g>
<g>
</g>
<g>
</g>
<g>
</g>
<g>
</g>
<g>
</g>
<g>
</g>
<g>
</g>
<g>
</g>
<g>
</g>
<g>
</g>
<g>
</g>
<g>
</g>
</svg>
