<svg width="20" height="20" viewBox="0 0 20 20" fill="none" xmlns="http://www.w3.org/2000/svg">
  <path
    d="M15.2578 8.3257C15.733 7.85049 16 7.20598 16 6.53393C16 5.86189 15.733 5.21738 15.2578 4.74217C14.7826 4.26697 14.1381 4 13.4661 4C12.794 4 12.1495 4.26697 11.6743 4.74217L6.29875 10.1177C5.8336 10.583 5.53177 11.1865 5.43847 11.8378L5.22513 13.3428L4.14831 14.4181C4.05334 14.5132 4 14.6421 4 14.7765C4 14.9109 4.05334 15.0398 4.14831 15.1349L4.86513 15.8517C4.96023 15.9467 5.08913 16 5.22353 16C5.35793 16 5.48684 15.9467 5.58194 15.8517L6.65715 14.7765L8.16225 14.5631C8.81351 14.4698 9.41699 14.168 9.88227 13.7029L15.2578 8.3257Z"
    stroke="white"
    stroke-width="1.5"
    stroke-linecap="round"
    stroke-linejoin="round"
  />
  <path
    d="M8.80664 4.74219L15.2574 11.193"
    stroke="white"
    stroke-width="1.5"
    stroke-linecap="round"
    stroke-linejoin="round"
  />
  <circle cx="13.5" cy="6.5" r="2.5" fill="white" />
</svg>
