<svg width="13" height="13" viewBox="0 0 13 13" fill="none" xmlns="http://www.w3.org/2000/svg">
  <path
    d="M11.584 4.6226L10.624 4.9626C10.3513 5.05902 10.1173 5.24153 9.95738 5.4826L8.53739 7.61592C8.31127 7.94811 8.19047 8.34072 8.19073 8.74258V9.7359C8.19124 9.82364 8.17442 9.91061 8.14124 9.99184C8.10807 10.0731 8.05918 10.1469 7.9974 10.2092L7.7174 10.4826C7.59249 10.6067 7.42352 10.6764 7.2474 10.6764C7.07128 10.6764 6.90231 10.6067 6.7774 10.4826L2.07077 5.76926C1.9466 5.64435 1.87691 5.47539 1.87691 5.29927C1.87691 5.12314 1.9466 4.95418 2.07077 4.82927L2.3441 4.52927C2.40639 4.46748 2.48027 4.4186 2.56149 4.38542C2.64272 4.35225 2.72969 4.33543 2.81743 4.33594H3.81076C4.21261 4.3362 4.60522 4.21539 4.93742 3.98927L7.07074 2.56928C7.3118 2.40936 7.49431 2.17537 7.59073 1.90262L7.93073 0.942627C7.96855 0.836635 8.03258 0.741942 8.11687 0.667371C8.20115 0.5928 8.30294 0.540779 8.41275 0.516155C8.52256 0.491531 8.63682 0.495105 8.74487 0.526546C8.85293 0.557986 8.95127 0.616269 9.03072 0.695962L11.8307 3.49594C11.9169 3.5748 11.9808 3.6749 12.0161 3.78623C12.0514 3.89757 12.0568 4.01622 12.0319 4.13031C12.0069 4.24441 11.9524 4.34994 11.8738 4.43633C11.7952 4.52273 11.6953 4.58696 11.584 4.6226ZM0.977442 10.1559C0.785044 10.3457 0.633099 10.5724 0.530779 10.8226L0.0241153 12.0426C-0.000276313 12.1031 -0.00632948 12.1696 0.00670789 12.2336C0.0197453 12.2976 0.0512985 12.3563 0.0974481 12.4026V12.4026C0.143669 12.4487 0.20243 12.4803 0.266432 12.4933C0.330434 12.5063 0.396855 12.5003 0.457446 12.4759L1.6641 11.9959C1.91422 11.8936 2.141 11.7416 2.33077 11.5492L4.27075 9.60924L2.9241 8.20925L0.977442 10.1559Z"
    fill="currentColor"
  />
</svg>
