<svg width="20" height="20" viewBox="0 0 20 20" fill="none" xmlns="http://www.w3.org/2000/svg">
  <g id="2310220_reload_repeat_retweet_share_icon 1">
    <path
      id="Vector"
      d="M18.6327 14.0466C18.3589 13.8674 17.999 13.9375 17.8191 14.2024L17.0838 15.2773V6.47517C17.0838 4.13053 15.1593 2.22217 12.8045 2.22217H6.5539C6.22538 2.22217 5.96722 2.48696 5.96722 2.80633C5.96722 3.13351 6.22538 3.39055 6.5539 3.39055H12.8045C14.5178 3.39055 15.9103 4.77708 15.9103 6.47517V15.2929L15.1749 14.2024C14.9872 13.9375 14.6273 13.8674 14.3534 14.0466C14.0875 14.2335 14.0171 14.5919 14.197 14.8645L16.0042 17.5207C16.1137 17.6765 16.3014 17.7777 16.4892 17.7777C16.6847 17.7777 16.8725 17.6765 16.982 17.5207L18.7892 14.8645C18.9691 14.5919 18.8987 14.2335 18.6327 14.0466Z"
      fill="#currentColor"
      stroke="#currentColor"
      stroke-width="0.5"
    />
    <path
      id="Vector_2"
      d="M13.4461 16.6093H7.20327C5.48225 16.6093 4.08968 15.2228 4.08968 13.5247V4.69928L4.83291 5.7976C5.01279 6.06239 5.37268 6.13252 5.64651 5.95335C5.91244 5.76644 5.98287 5.4081 5.80293 5.13544L3.99579 2.47923C3.77678 2.15992 3.23695 2.15992 3.02578 2.47923L1.21086 5.13544C1.03085 5.4081 1.10129 5.76644 1.36728 5.95335C1.46895 6.01568 1.58636 6.05465 1.69587 6.05465C1.89143 6.05465 2.07137 5.96116 2.18872 5.7976L2.91627 4.72264V13.5247C2.91627 15.8694 4.84069 17.7778 7.20327 17.7778H13.4461C13.7746 17.7778 14.0328 17.5129 14.0328 17.1936C14.0328 16.8665 13.7746 16.6093 13.4461 16.6093Z"
      fill="#currentColor"
      stroke="#currentColor"
      stroke-width="0.5"
    />
  </g>
</svg>
