<svg width="20" height="20" viewBox="0 0 20 20" fill="none" xmlns="http://www.w3.org/2000/svg">
  <path
    fill-rule="evenodd"
    clip-rule="evenodd"
    d="M12.9333 14.36L11.1733 14.72C10.5221 14.8502 9.91067 14.6388 9.49333 14.2133C9.05998 13.78 8.86666 13.16 8.98665 12.5467L9.35331 10.7533C9.41333 10.42 9.5933 10.0733 9.85331 9.81335C14.2975 5.40751 15.1855 4.78773 15.6933 4.5V3.96C15.6933 2.88 14.82 2 13.74 2H3.96C2.88 2 2 2.88 2 3.96V10V13V16V16.04C2 17.12 2.88 18 3.96 18H13.74C14.82 18 15.6933 17.12 15.6933 16.04V12.5L13.8933 13.8534C13.6333 14.12 13.2933 14.2933 12.9333 14.36ZM4.5 6.25C4.5 5.55964 5.05964 5 5.75 5H9.25C9.94036 5 10.5 5.55964 10.5 6.25C10.5 6.94036 9.94036 7.5 9.25 7.5H5.75C5.05964 7.5 4.5 6.94036 4.5 6.25ZM5.75 9C5.05964 9 4.5 9.55964 4.5 10.25C4.5 10.9404 5.05964 11.5 5.75 11.5H6.25C6.94036 11.5 7.5 10.9404 7.5 10.25C7.5 9.55964 6.94036 9 6.25 9H5.75Z"
    fill="currentColor"
  />
  <path
    d="M17.2321 6.4733C16.6405 5.88166 15.6741 5.878 15.0788 6.4733C10.6732 10.923 10.7065 10.7423 10.6546 11.0224L10.2908 12.8046C10.2577 12.9773 10.3092 13.1536 10.4305 13.2749C10.5554 13.3999 10.7318 13.4513 10.9045 13.4182L12.6867 13.0545C12.9624 13.0034 12.7611 13.0606 17.2358 8.63024C17.8311 8.03498 17.8274 7.06855 17.2321 6.4733Z"
    fill="currentColor"
  />
</svg>
