<svg width="20" height="20" viewBox="0 0 20 20" fill="none" xmlns="http://www.w3.org/2000/svg">
<path d="M8.4453 14.8321C8.75216 15.0367 9.1467 15.0558 9.47186 14.8817C9.79701 14.7077 10 14.3689 10 14.0001L10 11.2019L15.4453 14.8321C15.7522 15.0367 16.1467 15.0558 16.4719 14.8817C16.797 14.7077 17 14.3689 17 14.0001V6.00006C17 5.63127 16.797 5.29241 16.4719 5.11839C16.1467 4.94437 15.7522 4.96344 15.4453 5.16801L10 8.79821V6.00006C10 5.63127 9.79702 5.29241 9.47186 5.11839C9.1467 4.94437 8.75216 4.96344 8.4453 5.16801L2.4453 9.16801C2.1671 9.35348 2 9.66571 2 10.0001C2 10.3344 2.1671 10.6466 2.4453 10.8321L8.4453 14.8321Z" fill="currentColor"/>
</svg>
