<svg width="20" height="20" viewBox="0 0 20 20" fill="none" xmlns="http://www.w3.org/2000/svg">
<path fill-rule="evenodd" clip-rule="evenodd" d="M10 1.94434C7.91528 3.81021 5.17437 4.95797 2.16611 4.99878C2.05686 5.64956 2 6.31809 2 6.99991C2 12.2248 5.33923 16.6697 10 18.317C14.6608 16.6697 18 12.2248 18 6.99991C18 6.31809 17.9431 5.64956 17.8339 4.99878C14.8256 4.95797 12.0847 3.81021 10 1.94434ZM11 13.9999C11 14.5522 10.5523 14.9999 10 14.9999C9.44772 14.9999 9 14.5522 9 13.9999C9 13.4476 9.44772 12.9999 10 12.9999C10.5523 12.9999 11 13.4476 11 13.9999ZM11 6.99988C11 6.44759 10.5523 5.99988 10 5.99988C9.44772 5.99988 9 6.44759 9 6.99988V9.99988C9 10.5522 9.44772 10.9999 10 10.9999C10.5523 10.9999 11 10.5522 11 9.99988V6.99988Z" fill="#101011"/>
</svg>
