<svg width="20" height="20" viewBox="0 0 20 20" fill="none" xmlns="http://www.w3.org/2000/svg">
<path fill-rule="evenodd" clip-rule="evenodd" d="M2.16611 4.99878C5.17437 4.95797 7.91528 3.81021 10 1.94434C12.0847 3.81021 14.8256 4.95797 17.8339 4.99878C17.9431 5.64956 18 6.31809 18 6.99991C18 12.2248 14.6608 16.6697 10 18.317C5.33923 16.6697 2 12.2248 2 6.99991C2 6.31809 2.05686 5.64956 2.16611 4.99878ZM13.7071 8.70698C14.0976 8.31646 14.0976 7.6833 13.7071 7.29277C13.3166 6.90225 12.6834 6.90225 12.2929 7.29277L9 10.5857L7.70711 9.29277C7.31658 8.90225 6.68342 8.90225 6.29289 9.29277C5.90237 9.6833 5.90237 10.3165 6.29289 10.707L8.29289 12.707C8.68342 13.0975 9.31658 13.0975 9.70711 12.707L13.7071 8.70698Z" fill="#101011"/>
</svg>
