<svg width="20" height="20" viewBox="0 0 20 20" fill="none" xmlns="http://www.w3.org/2000/svg">
<path fill-rule="evenodd" clip-rule="evenodd" d="M5.05038 3.63591C5.4409 4.02644 5.4409 4.6596 5.05038 5.05012C2.31671 7.78379 2.3167 12.2159 5.05037 14.9496C5.4409 15.3401 5.4409 15.9733 5.05037 16.3638C4.65985 16.7544 4.02668 16.7544 3.63616 16.3638C0.121442 12.8491 0.121443 7.15063 3.63616 3.63591C4.02669 3.24539 4.65985 3.24539 5.05038 3.63591ZM14.9499 3.63614C15.3404 3.24562 15.9736 3.24562 16.3641 3.63614C19.8788 7.15086 19.8788 12.8493 16.3641 16.3641C15.9736 16.7546 15.3404 16.7546 14.9499 16.3641C14.5594 15.9735 14.5594 15.3404 14.9499 14.9499C17.6836 12.2162 17.6836 7.78403 14.9499 5.05036C14.5594 4.65983 14.5594 4.02667 14.9499 3.63614ZM7.87881 6.46434C8.26933 6.85486 8.26933 7.48803 7.87881 7.87855C6.70724 9.05012 6.70723 10.9496 7.87881 12.1212C8.26933 12.5117 8.26933 13.1449 7.87881 13.5354C7.48828 13.9259 6.85512 13.9259 6.46459 13.5354C4.51197 11.5828 4.51197 8.41696 6.46459 6.46434C6.85512 6.07381 7.48828 6.07381 7.87881 6.46434ZM12.1215 6.46457C12.512 6.07405 13.1451 6.07405 13.5357 6.46457C15.4883 8.41719 15.4883 11.583 13.5357 13.5356C13.1451 13.9262 12.512 13.9262 12.1215 13.5356C11.7309 13.1451 11.7309 12.5119 12.1215 12.1214C13.293 10.9499 13.293 9.05036 12.1215 7.87878C11.7309 7.48826 11.7309 6.85509 12.1215 6.46457ZM10.0001 9.0001C10.5524 9.0001 11.0001 9.44782 11.0001 10.0001V10.0101C11.0001 10.5624 10.5524 11.0101 10.0001 11.0101C9.44784 11.0101 9.00012 10.5624 9.00012 10.0101V10.0001C9.00012 9.44782 9.44784 9.0001 10.0001 9.0001Z" fill="#101011"/>
</svg>
