<svg width="20" height="20" viewBox="0 0 20 20" fill="none" xmlns="http://www.w3.org/2000/svg">
  <path
    fill-rule="evenodd"
    clip-rule="evenodd"
    d="M13.7071 5.45711C14.0976 5.06658 14.0976 4.43342 13.7071 4.04289C13.3166 3.65237 12.6834 3.65237 12.2929 4.04289L5 11.3358L1.70711 8.04289C1.31658 7.65237 0.683418 7.65237 0.292893 8.04289C-0.0976311 8.43342 -0.0976311 9.06658 0.292893 9.45711L4.29289 13.4571C4.68342 13.8476 5.31658 13.8476 5.70711 13.4571L13.7071 5.45711ZM19.2052 7.95711C19.5957 7.56658 19.5957 6.93342 19.2052 6.54289C18.8146 6.15237 18.1815 6.15237 17.7909 6.54289L10.498 13.8358L9.70515 13.0429C9.31463 12.6524 8.68146 12.6524 8.29094 13.0429C7.90042 13.4334 7.90042 14.0666 8.29094 14.4571L9.79094 15.9571C10.1815 16.3476 10.8146 16.3476 11.2052 15.9571L19.2052 7.95711Z"
    fill="currentColor"
  />
</svg>
