<svg width="20" height="20" viewBox="0 0 20 20" fill="none" xmlns="http://www.w3.org/2000/svg">
<path fill-rule="evenodd" clip-rule="evenodd" d="M9.38268 3.07591C9.75636 3.23069 10 3.59532 10 3.99979V15.9998C10 16.4042 9.75636 16.7689 9.38268 16.9237C9.00901 17.0784 8.57889 16.9929 8.29289 16.7069L4.58579 12.9998H2C1.44772 12.9998 1 12.5521 1 11.9998V7.99978C1 7.4475 1.44772 6.99978 2 6.99978H4.58579L8.29289 3.29268C8.57889 3.00668 9.00901 2.92112 9.38268 3.07591Z" fill="#101011"/>
<path fill-rule="evenodd" clip-rule="evenodd" d="M14.6568 2.92864C15.0474 2.53811 15.6805 2.53811 16.0711 2.92864C17.8796 4.73718 19 7.23856 19 9.9997C19 12.7609 17.8796 15.2622 16.0711 17.0708C15.6805 17.4613 15.0474 17.4613 14.6568 17.0708C14.2663 16.6802 14.2663 16.0471 14.6568 15.6566C16.1057 14.2077 17 12.2091 17 9.9997C17 7.79029 16.1057 5.79166 14.6568 4.34285C14.2663 3.95232 14.2663 3.31916 14.6568 2.92864ZM11.8284 5.75706C12.2189 5.36654 12.8521 5.36654 13.2426 5.75706C13.7685 6.28294 14.1976 6.90663 14.5003 7.59933C14.822 8.33568 15 9.14822 15 9.9997C15 11.6563 14.3273 13.1577 13.2426 14.2423C12.8521 14.6329 12.2189 14.6329 11.8284 14.2423C11.4379 13.8518 11.4379 13.2187 11.8284 12.8281C12.5534 12.1032 13 11.1045 13 9.9997C13 9.42898 12.8811 8.88866 12.6676 8.40007C12.4663 7.93934 12.1802 7.52303 11.8284 7.17128C11.4379 6.78075 11.4379 6.14759 11.8284 5.75706Z" fill="#101011"/>
</svg>
